<svg width="24" height="24" viewBox="0 0 24 24" fill="none" xmlns="http://www.w3.org/2000/svg">
<path d="M3 15.7016V19.016C3 19.1084 3.0367 19.197 3.10201 19.2623C3.16733 19.3276 3.25592 19.3643 3.3483 19.3643H20.6517C20.7441 19.3643 20.8327 19.3276 20.898 19.2623C20.9633 19.197 21 19.1084 21 19.016V15.7016C21.0007 15.0868 20.8255 14.4845 20.4952 13.966C20.1648 13.4474 19.6931 13.034 19.1356 12.7747C19.6747 12.4471 20.0767 11.935 20.2668 11.3334C20.4569 10.7318 20.4221 10.0816 20.1691 9.50371C19.916 8.92578 19.4618 8.45933 18.8908 8.19099C18.3198 7.92265 17.6708 7.87067 17.0644 8.04468C17.3234 7.65116 17.471 7.1949 17.4916 6.72427C17.5123 6.25365 17.4051 5.78622 17.1816 5.37155C16.9581 4.95688 16.6265 4.61044 16.222 4.36897C15.8175 4.1275 15.3552 4 14.8842 4C14.4131 4 13.9508 4.1275 13.5463 4.36897C13.1418 4.61044 12.8102 4.95688 12.5867 5.37155C12.3632 5.78622 12.2561 6.25365 12.2767 6.72427C12.2973 7.1949 12.445 7.65116 12.7039 8.04468C12.2443 7.91075 11.756 7.91075 11.2964 8.04468C11.5554 7.65116 11.703 7.1949 11.7236 6.72427C11.7443 6.25365 11.6372 5.78622 11.4136 5.37155C11.1901 4.95688 10.8585 4.61044 10.454 4.36897C10.0496 4.1275 9.58726 4 9.11619 4C8.64511 4 8.18282 4.1275 7.77833 4.36897C7.37385 4.61044 7.04227 4.95688 6.81874 5.37155C6.59522 5.78622 6.48809 6.25365 6.50872 6.72427C6.52936 7.1949 6.67698 7.65116 6.93593 8.04468C6.33013 7.87365 5.68289 7.92766 5.11381 8.19674C4.54473 8.46583 4.09228 8.93179 3.84006 9.50853C3.58783 10.0853 3.55288 10.7338 3.74166 11.3343C3.93043 11.9349 4.33019 12.4467 4.86705 12.7754C4.30986 13.0352 3.83829 13.4485 3.5076 13.9668C3.17692 14.4851 3.00084 15.0869 3 15.7016ZM8.29255 13.2113C8.26747 13.1904 8.2403 13.1718 8.21523 13.1518C8.16159 13.11 8.10778 13.0687 8.05205 13.0299C8.02036 13.0083 7.98779 12.9884 7.9554 12.968C7.90315 12.9349 7.85091 12.9027 7.79657 12.8728C7.76174 12.8534 7.72692 12.8355 7.69209 12.8176C7.66353 12.8031 7.63601 12.7866 7.60728 12.773C7.6273 12.7606 7.64628 12.7469 7.66579 12.734C7.74157 12.6842 7.81475 12.6307 7.88504 12.5734C7.89375 12.5663 7.90246 12.5586 7.91064 12.5513C7.96091 12.509 8.00944 12.4649 8.05623 12.4189C8.06738 12.408 8.07887 12.3974 8.08984 12.386C8.14127 12.3339 8.1905 12.2797 8.23752 12.2236C8.24623 12.2131 8.25493 12.2021 8.26312 12.1915C8.3041 12.1408 8.34317 12.0885 8.38032 12.0348C8.38816 12.0235 8.39617 12.0127 8.40383 12.0012C8.4447 11.94 8.48295 11.8771 8.51859 11.8124C8.52608 11.7988 8.53305 11.7849 8.54036 11.7711C8.57148 11.7124 8.6005 11.6523 8.62744 11.591C8.63179 11.5808 8.63684 11.571 8.64102 11.5607C8.66976 11.4921 8.69518 11.4214 8.71817 11.3502C8.72339 11.3338 8.7281 11.3175 8.73315 11.3011C8.75335 11.2335 8.77128 11.1653 8.78539 11.0956C8.78678 11.0886 8.78887 11.082 8.79027 11.075C8.80895 10.9814 8.82244 10.8868 8.83067 10.7917C8.83781 10.7133 8.84269 10.635 8.84269 10.5543C8.84269 10.4862 8.83903 10.4185 8.8338 10.3509C8.83224 10.3314 8.83015 10.3123 8.82823 10.2928C8.82301 10.241 8.81621 10.1894 8.80786 10.1381C8.80507 10.1207 8.80263 10.1033 8.7995 10.0859C8.78748 10.0201 8.77337 9.95492 8.75631 9.89048C8.75317 9.87829 8.74917 9.86645 8.74568 9.85426C8.73082 9.80097 8.71434 9.7482 8.69623 9.69596C8.68961 9.67692 8.68276 9.65799 8.67568 9.63919C8.65652 9.58787 8.63574 9.53719 8.61333 9.48715C8.60793 9.47514 8.60323 9.46295 8.59766 9.45111C8.57314 9.39789 8.54665 9.34561 8.51825 9.29437C8.91119 9.2007 9.32066 9.2007 9.7136 9.29437C9.68504 9.34662 9.65875 9.39886 9.63384 9.45232C9.62844 9.46382 9.62392 9.47566 9.61869 9.48715C9.59617 9.53754 9.57521 9.58863 9.55582 9.64041C9.54886 9.6591 9.54207 9.67791 9.53545 9.69683C9.51722 9.74907 9.50068 9.80184 9.48582 9.85513C9.48251 9.86732 9.4785 9.87916 9.47519 9.89135C9.45778 9.95579 9.44402 10.0211 9.432 10.0869C9.42887 10.1043 9.42661 10.1218 9.42382 10.1392C9.41546 10.1905 9.40867 10.242 9.40344 10.2938C9.40153 10.3131 9.39944 10.3325 9.39787 10.352C9.39265 10.4195 9.38899 10.4873 9.38899 10.5554C9.38935 10.6533 9.39522 10.7512 9.40658 10.8485C9.41529 10.9254 9.42626 11.0016 9.44141 11.0763C9.4428 11.0831 9.44472 11.0895 9.44611 11.0963C9.46482 11.1826 9.48742 11.268 9.51385 11.3523C9.53684 11.4235 9.56209 11.4937 9.59083 11.5621C9.59518 11.5722 9.60006 11.5822 9.60441 11.5923C9.63088 11.6532 9.65996 11.7129 9.69149 11.7715C9.69915 11.7859 9.70646 11.8005 9.71447 11.8148C9.75012 11.8793 9.78825 11.942 9.82889 12.0031C9.83638 12.0142 9.84439 12.025 9.85222 12.0362C9.88914 12.0895 9.92792 12.1412 9.96856 12.1915C9.97779 12.203 9.98597 12.2147 9.99607 12.2263C10.0425 12.2825 10.0917 12.3366 10.1436 12.3886C10.1542 12.3994 10.1653 12.4099 10.1763 12.4205C10.2228 12.466 10.2709 12.5098 10.3207 12.5518C10.3301 12.5598 10.3391 12.5682 10.3487 12.5759C10.4055 12.6224 10.4644 12.6661 10.525 12.7077C10.5385 12.7171 10.5523 12.7251 10.5661 12.735C10.5875 12.7491 10.6084 12.7641 10.6303 12.7775C10.5955 12.7935 10.564 12.8123 10.5305 12.8298C10.4894 12.8508 10.448 12.871 10.4086 12.8939C10.3717 12.9149 10.3362 12.9383 10.3001 12.9607C10.2601 12.9856 10.2195 13.0097 10.1805 13.0363C10.1457 13.0596 10.1138 13.0852 10.0805 13.11C10.0419 13.1387 10.0025 13.1666 9.96525 13.197C9.9339 13.2225 9.90447 13.2493 9.87417 13.2765C9.83707 13.3088 9.79946 13.3405 9.76393 13.3745C9.73555 13.4017 9.70907 13.4309 9.68156 13.4591C9.64673 13.495 9.61103 13.5304 9.57707 13.568C9.5513 13.5971 9.52761 13.6279 9.50288 13.658C9.47066 13.6972 9.43758 13.7357 9.4071 13.7764C9.38394 13.8074 9.36287 13.8403 9.34075 13.8722C9.31167 13.9142 9.28189 13.9555 9.25472 13.9988C9.23382 14.0323 9.21536 14.0674 9.19568 14.1017C9.17043 14.1456 9.14344 14.1888 9.12097 14.2343C9.11941 14.2374 9.11732 14.2404 9.11575 14.2435C9.10826 14.2285 9.09834 14.2144 9.09137 14.1996C9.0696 14.1585 9.04702 14.1179 9.02363 14.0777C9.00621 14.0479 8.9888 14.0182 8.97138 13.9889C8.94578 13.9478 8.91914 13.9079 8.89092 13.8679C8.87246 13.841 8.85453 13.8141 8.8352 13.7878C8.80314 13.7447 8.76998 13.7025 8.73576 13.6611C8.71834 13.6397 8.70093 13.6176 8.68351 13.5965C8.56481 13.4571 8.43398 13.3284 8.29255 13.212V13.2113ZM9.4644 15.7016C9.46422 15.2 9.61286 14.7095 9.89151 14.2924C10.1702 13.8752 10.5663 13.5501 11.0298 13.3581C11.4933 13.1662 12.0033 13.116 12.4953 13.214C12.9873 13.312 13.4392 13.5537 13.7937 13.9086C13.8367 13.9516 13.8779 13.9958 13.9174 14.0413C14.3157 14.5029 14.5353 15.092 14.5363 15.7016V18.6677H9.4644V15.7016ZM13.4768 12.7063C13.537 12.6648 13.5955 12.6213 13.652 12.5752C13.6609 12.5678 13.6694 12.5602 13.6779 12.5527C13.7278 12.5107 13.7761 12.4668 13.8228 12.421L13.8576 12.3874C13.9088 12.3354 13.9579 12.2814 14.0048 12.2255C14.0139 12.2147 14.0222 12.2035 14.0311 12.1926C14.0716 12.1424 14.1103 12.0907 14.1471 12.0376C14.1553 12.0259 14.1645 12.0144 14.1716 12.0027C14.2123 11.9419 14.2503 11.8793 14.2859 11.815C14.2937 11.8009 14.3008 11.7866 14.3085 11.7723C14.3392 11.7143 14.3677 11.655 14.3942 11.5945C14.3989 11.5837 14.4041 11.5731 14.4088 11.5621C14.4441 11.4774 14.4749 11.3908 14.5009 11.3028C14.521 11.236 14.5389 11.168 14.5532 11.0989C14.5548 11.0916 14.5568 11.0844 14.5582 11.077C14.5769 10.9834 14.5904 10.889 14.5986 10.794C14.6058 10.7156 14.6107 10.6372 14.6107 10.5566C14.6107 10.4885 14.607 10.4208 14.6018 10.3532C14.6002 10.3337 14.5981 10.3145 14.5962 10.295C14.591 10.2432 14.5842 10.1917 14.5758 10.1404C14.573 10.123 14.5708 10.1056 14.5676 10.0881C14.5556 10.0223 14.5415 9.95718 14.5245 9.89257C14.5213 9.88056 14.5173 9.86871 14.514 9.8567C14.4991 9.80318 14.4826 9.75023 14.4644 9.69787C14.4579 9.67907 14.4511 9.66032 14.444 9.64162C14.4246 9.58973 14.4036 9.53853 14.381 9.48803C14.3757 9.47653 14.3712 9.46486 14.366 9.4532C14.3411 9.39973 14.3148 9.34696 14.2862 9.29524C14.6792 9.20157 15.0886 9.20157 15.4816 9.29524C15.4532 9.34749 15.4269 9.39973 15.4022 9.45198C15.3964 9.46434 15.3915 9.47688 15.386 9.48924C15.3638 9.53894 15.3432 9.58921 15.3241 9.64006C15.3171 9.6591 15.3102 9.6782 15.3034 9.69735C15.2853 9.74936 15.2689 9.80161 15.2541 9.85409C15.2507 9.86628 15.2467 9.87847 15.2435 9.89066C15.2261 9.95509 15.2123 10.0204 15.2005 10.0861C15.1974 10.1035 15.1951 10.1209 15.1923 10.1383C15.184 10.1896 15.1772 10.2412 15.1719 10.2929C15.17 10.3123 15.1679 10.3316 15.1664 10.3511C15.1611 10.4187 15.1575 10.4864 15.1575 10.5545C15.1578 10.6525 15.1637 10.7503 15.1751 10.8476C15.1838 10.9244 15.1948 11.0005 15.2099 11.0752C15.2113 11.0822 15.2132 11.0888 15.2148 11.0958C15.2333 11.1821 15.256 11.2674 15.2825 11.3516C15.3053 11.4226 15.3306 11.4927 15.3593 11.5606C15.3637 11.571 15.3687 11.5811 15.3733 11.5916C15.3996 11.6522 15.4282 11.7114 15.4591 11.7694C15.4669 11.7842 15.4746 11.7992 15.4826 11.8138C15.5181 11.878 15.5562 11.9405 15.5967 12.0013C15.6044 12.0128 15.6127 12.024 15.6205 12.0362C15.6571 12.089 15.6955 12.1404 15.7358 12.1903C15.7454 12.2021 15.7545 12.214 15.7642 12.2251C15.8107 12.2811 15.8597 12.335 15.9114 12.3869C15.9222 12.3979 15.9335 12.4083 15.9445 12.4191C15.9909 12.4644 16.0388 12.5079 16.0881 12.5497C16.0977 12.5579 16.1069 12.5671 16.1167 12.5743C16.1735 12.6207 16.2323 12.6647 16.2931 12.7063C16.3065 12.7155 16.3201 12.7237 16.3335 12.7331C16.3553 12.7474 16.3764 12.7625 16.3986 12.7761C16.3638 12.7923 16.3314 12.811 16.2976 12.8284C16.2574 12.8491 16.2167 12.8689 16.1773 12.8914C16.1379 12.9139 16.1019 12.9377 16.0645 12.9611C16.027 12.9844 15.9871 13.0081 15.9497 13.0337C15.9122 13.0593 15.8788 13.0859 15.8436 13.1119C15.8085 13.1378 15.77 13.1653 15.7346 13.1939C15.6993 13.2225 15.6691 13.2509 15.6364 13.2794C15.6037 13.308 15.5667 13.3393 15.5331 13.3712C15.4995 13.4031 15.4732 13.4325 15.4434 13.4633C15.411 13.4969 15.3778 13.5295 15.3468 13.5645C15.3187 13.5962 15.293 13.6298 15.266 13.6625C15.2359 13.6993 15.205 13.7352 15.1765 13.7731C15.1514 13.8066 15.1288 13.8417 15.1051 13.8762C15.0777 13.9159 15.0493 13.9548 15.0237 13.9957C15.0016 14.0305 14.9823 14.0678 14.9616 14.1038C14.9374 14.1462 14.9119 14.1878 14.8896 14.2313C14.8881 14.2344 14.886 14.2374 14.8844 14.2407C14.8773 14.2268 14.8687 14.2134 14.8614 14.1996C14.8389 14.1568 14.8153 14.1144 14.7907 14.0727C14.7733 14.0443 14.7576 14.0157 14.7402 13.9879C14.7137 13.9459 14.6862 13.9045 14.6577 13.8639C14.6403 13.8379 14.6229 13.8116 14.6035 13.786C14.5711 13.7427 14.5377 13.7002 14.5032 13.6585C14.4858 13.6373 14.4694 13.6153 14.451 13.5945C14.3979 13.5326 14.3426 13.4725 14.2847 13.4144C14.2127 13.3421 14.1375 13.2751 14.06 13.2101C14.0348 13.189 14.0078 13.1704 13.9825 13.1502C13.929 13.1084 13.8752 13.0671 13.8195 13.0283C13.788 13.0067 13.7554 12.987 13.7234 12.9666C13.6711 12.9334 13.6189 12.9012 13.5644 12.871C13.5295 12.8517 13.4947 12.8336 13.4588 12.8157C13.4303 12.8012 13.4026 12.7847 13.3737 12.7711C13.3934 12.7589 13.4122 12.7453 13.4315 12.7326C13.4473 12.7256 13.4628 12.716 13.4768 12.7059V12.7063ZM19.5608 13.9091C19.7971 14.1441 19.9844 14.4237 20.1118 14.7316C20.2393 15.0395 20.3044 15.3696 20.3034 15.7029V18.6677H15.2322V15.7016C15.232 15.2001 15.3806 14.7097 15.6592 14.2926C15.9377 13.8755 16.3337 13.5503 16.7971 13.3583C17.2605 13.1663 17.7704 13.116 18.2624 13.2139C18.7543 13.3117 19.2062 13.5532 19.5608 13.9079V13.9091ZM19.6817 10.5561C19.6817 11.0637 19.4801 11.5505 19.1211 11.9094C18.7622 12.2683 18.2754 12.47 17.7678 12.47C17.2602 12.47 16.7734 12.2683 16.4145 11.9094C16.0555 11.5505 15.8539 11.0637 15.8539 10.5561C15.8539 10.5004 15.8563 10.4449 15.8612 10.3896C15.898 10.0029 16.0487 9.63584 16.2943 9.33495C16.5455 9.03173 16.8842 8.81339 17.2641 8.7097C17.6439 8.60602 18.0465 8.62204 18.417 8.75558C18.7874 8.88912 19.1076 9.13367 19.334 9.45589C19.5603 9.77812 19.6817 10.1623 19.6817 10.5561ZM14.8841 4.70103C15.2625 4.70103 15.6324 4.81324 15.947 5.02347C16.2617 5.23369 16.5069 5.5325 16.6518 5.8821C16.7966 6.23171 16.8345 6.6164 16.7607 6.98755C16.6869 7.3587 16.5047 7.69963 16.2372 7.96723C15.9696 8.23484 15.6287 8.4171 15.2576 8.49096C14.8864 8.56483 14.5017 8.52699 14.1521 8.38222C13.8025 8.23746 13.5036 7.99227 13.2933 7.67766C13.083 7.36306 12.9708 6.99316 12.9707 6.61475C12.9712 6.10741 13.1729 5.621 13.5317 5.26223C13.8904 4.90346 14.3767 4.70163 14.8841 4.70103ZM13.4735 9.33425C13.6695 9.57075 13.8058 9.85097 13.8707 10.1512C13.9356 10.4515 13.9273 10.7629 13.8464 11.0593C13.7656 11.3557 13.6146 11.6282 13.4062 11.8539C13.1979 12.0796 12.9382 12.2519 12.6492 12.3561C12.3602 12.4603 12.0504 12.4934 11.746 12.4526C11.4415 12.4119 11.1513 12.2984 10.8999 12.1218C10.6485 11.9453 10.4434 11.7108 10.3017 11.4382C10.1601 11.1656 10.0861 10.8629 10.0861 10.5557C10.0861 10.5 10.0885 10.4445 10.0934 10.3892C10.1264 10.0111 10.2711 9.6513 10.509 9.35559C10.747 9.05988 11.0676 8.84162 11.4299 8.72857C11.7923 8.61551 12.1801 8.61277 12.544 8.72068C12.9079 8.82859 13.2315 9.04229 13.4736 9.3346L13.4735 9.33425ZM9.11592 4.70103C9.49434 4.70103 9.86426 4.81324 10.1789 5.02347C10.4935 5.23369 10.7388 5.5325 10.8836 5.8821C11.0284 6.23171 11.0664 6.6164 10.9926 6.98755C10.9188 7.3587 10.7366 7.69963 10.469 7.96723C10.2015 8.23484 9.86055 8.4171 9.48942 8.49096C9.11828 8.56483 8.73358 8.52699 8.38395 8.38222C8.03432 8.23746 7.73547 7.99227 7.52518 7.67766C7.3149 7.36306 7.20262 6.99316 7.20255 6.61475C7.20306 6.10741 7.4048 5.621 7.76351 5.26223C8.12221 4.90346 8.60859 4.70163 9.11592 4.70103ZM4.3183 10.5557C4.31827 10.1772 4.43049 9.80714 4.64077 9.49238C4.85105 9.17762 5.14995 8.93228 5.49966 8.7874C5.84938 8.64251 6.2342 8.60459 6.60547 8.67842C6.97674 8.75225 7.31778 8.93451 7.58546 9.20217C7.85314 9.46982 8.03544 9.81085 8.1093 10.1821C8.18317 10.5534 8.14527 10.9382 8.00042 11.2879C7.85557 11.6377 7.61026 11.9366 7.29552 12.1469C6.98078 12.3572 6.61074 12.4695 6.2322 12.4695C5.72477 12.469 5.23826 12.2672 4.87944 11.9084C4.52062 11.5496 4.31881 11.0632 4.3183 10.5557ZM6.2322 13.166C6.56521 13.1651 6.8951 13.2303 7.20278 13.3577C7.51046 13.4851 7.78982 13.6722 8.02471 13.9083C8.06755 13.9512 8.10865 13.9955 8.14801 14.0411C8.54692 14.5026 8.76687 15.0919 8.7678 15.7018V18.6677H3.69659V15.7016C3.69738 15.0294 3.96477 14.3849 4.44012 13.9096C4.91547 13.4342 5.55995 13.1668 6.2322 13.166Z" fill="black"/>
</svg>
