<svg width="138" height="28" viewBox="0 0 138 28" fill="none" xmlns="http://www.w3.org/2000/svg">
<path d="M1.21153 8.28668V0.518428H3.35674C6.09423 0.518428 7.46297 1.78063 7.46297 4.30505C7.46297 5.50405 7.08196 6.46831 6.31994 7.19783C5.56154 7.92373 4.54491 8.28668 3.27006 8.28668H1.21153ZM2.12162 1.34184V7.46327H3.2809C4.29933 7.46327 5.09205 7.1906 5.65905 6.64527C6.22605 6.09994 6.50954 5.32709 6.50954 4.32671C6.50954 2.3368 5.45139 1.34184 3.33507 1.34184H2.12162Z" fill="white"/>
<path d="M9.32648 1.33101C9.16758 1.33101 9.03215 1.27684 8.9202 1.16849C8.80824 1.06015 8.75226 0.922912 8.75226 0.756785C8.75226 0.590658 8.80824 0.453422 8.9202 0.345078C9.03215 0.233123 9.16758 0.177145 9.32648 0.177145C9.489 0.177145 9.62624 0.233123 9.73819 0.345078C9.85376 0.453422 9.91154 0.590658 9.91154 0.756785C9.91154 0.915689 9.85376 1.05112 9.73819 1.16307C9.62624 1.27503 9.489 1.33101 9.32648 1.33101ZM9.75986 8.28668H8.87144V2.73948H9.75986V8.28668Z" fill="white"/>
<path d="M16.163 8.28668H15.2746V5.12304C15.2746 3.9457 14.8448 3.35704 13.9853 3.35704C13.5411 3.35704 13.1727 3.52497 12.8802 3.86084C12.5912 4.19309 12.4468 4.61383 12.4468 5.12304V8.28668H11.5584V2.73948H12.4468V3.6604H12.4685C12.8874 2.95978 13.4941 2.60946 14.2886 2.60946C14.8954 2.60946 15.3594 2.80629 15.6809 3.19994C16.0023 3.58998 16.163 4.15517 16.163 4.89552V8.28668Z" fill="white"/>
<path d="M21.8131 8.28668H20.9247V7.41993H20.903C20.5166 8.08444 19.9478 8.41669 19.1966 8.41669C18.6441 8.41669 18.2107 8.27043 17.8965 7.9779C17.5859 7.68537 17.4306 7.29714 17.4306 6.8132C17.4306 5.77672 18.0409 5.1736 19.2616 5.00386L20.9247 4.77092C20.9247 3.82833 20.5437 3.35704 19.7817 3.35704C19.1135 3.35704 18.5104 3.58456 17.9723 4.0396V3.12951C18.5177 2.78281 19.146 2.60946 19.8575 2.60946C21.1612 2.60946 21.8131 3.29925 21.8131 4.67883V8.28668ZM20.9247 5.48058L19.5866 5.66476C19.1749 5.72254 18.8644 5.82547 18.6549 5.97354C18.4454 6.118 18.3407 6.37622 18.3407 6.7482C18.3407 7.01906 18.4364 7.24116 18.6278 7.41451C18.8228 7.58425 19.081 7.66912 19.4025 7.66912C19.8431 7.66912 20.206 7.51563 20.4913 7.20866C20.7802 6.89807 20.9247 6.50623 20.9247 6.03313V5.48058Z" fill="white"/>
<path d="M23.1512 8.08624V7.13282C23.6351 7.49035 24.1678 7.66912 24.7492 7.66912C25.5293 7.66912 25.9193 7.4091 25.9193 6.88905C25.9193 6.74098 25.885 6.61638 25.8164 6.51526C25.7514 6.41053 25.6611 6.31843 25.5456 6.23898C25.4336 6.15953 25.3 6.08911 25.1447 6.02771C24.993 5.96271 24.8287 5.89589 24.6517 5.82728C24.4061 5.72977 24.1895 5.63226 24.0017 5.53475C23.8175 5.43363 23.6622 5.32167 23.5358 5.19888C23.413 5.07248 23.3191 4.92983 23.2541 4.77092C23.1927 4.61202 23.162 4.42603 23.162 4.21295C23.162 3.95293 23.2216 3.7236 23.3408 3.52497C23.4599 3.32273 23.6188 3.15479 23.8175 3.02117C24.0161 2.88394 24.2418 2.78101 24.4946 2.71239C24.751 2.64377 25.0147 2.60946 25.2855 2.60946C25.7659 2.60946 26.1956 2.69253 26.5748 2.85866V3.75791C26.1667 3.49066 25.6972 3.35704 25.1664 3.35704C25.0002 3.35704 24.8503 3.3769 24.7167 3.41663C24.5831 3.45274 24.4675 3.50511 24.37 3.57372C24.2761 3.64234 24.2021 3.72541 24.1479 3.82292C24.0974 3.91681 24.0721 4.02155 24.0721 4.13711C24.0721 4.28157 24.0974 4.40255 24.1479 4.50006C24.2021 4.59757 24.2797 4.68425 24.3809 4.76009C24.482 4.83593 24.6048 4.90455 24.7492 4.96594C24.8937 5.02734 25.058 5.09415 25.2422 5.16638C25.4878 5.26028 25.7081 5.35779 25.9031 5.45891C26.0981 5.55642 26.2642 5.66837 26.4015 5.79477C26.5387 5.91756 26.6434 6.06022 26.7157 6.22273C26.7915 6.38525 26.8294 6.57846 26.8294 6.80237C26.8294 7.07684 26.768 7.3152 26.6452 7.51744C26.5261 7.71968 26.3654 7.88761 26.1631 8.02124C25.9609 8.15486 25.7279 8.25418 25.4643 8.31918C25.2007 8.38419 24.9244 8.41669 24.6355 8.41669C24.0649 8.41669 23.5701 8.30654 23.1512 8.08624Z" fill="white"/>
<path d="M36.77 8.28668H35.5024L32.5012 4.733C32.3893 4.59938 32.3207 4.50909 32.2954 4.46214H32.2737V8.28668H31.3636V0.518428H32.2737V4.16962H32.2954C32.3459 4.09016 32.4146 4.00168 32.5012 3.90417L35.4048 0.518428H36.537L33.2055 4.24546L36.77 8.28668Z" fill="white"/>
<path d="M39.8469 8.41669C39.0271 8.41669 38.3717 8.15847 37.8805 7.64204C37.393 7.12198 37.1492 6.434 37.1492 5.57809C37.1492 4.64633 37.4038 3.91862 37.913 3.39496C38.4222 2.8713 39.1102 2.60946 39.977 2.60946C40.804 2.60946 41.4486 2.86407 41.9109 3.37329C42.3768 3.8825 42.6097 4.58854 42.6097 5.49141C42.6097 6.37622 42.3587 7.08587 41.8567 7.62037C41.3583 8.15125 40.6884 8.41669 39.8469 8.41669ZM39.9119 3.35704C39.3413 3.35704 38.8899 3.55206 38.5576 3.94209C38.2254 4.32852 38.0593 4.86302 38.0593 5.54558C38.0593 6.20287 38.2272 6.72111 38.5631 7.10032C38.8989 7.47952 39.3486 7.66912 39.9119 7.66912C40.4862 7.66912 40.9268 7.48313 41.2337 7.11115C41.5443 6.73917 41.6996 6.21009 41.6996 5.52391C41.6996 4.83051 41.5443 4.29602 41.2337 3.92042C40.9268 3.54483 40.4862 3.35704 39.9119 3.35704Z" fill="white"/>
<path d="M51.9056 8.28668H51.0172V5.10137C51.0172 4.48742 50.9215 4.04321 50.7301 3.76874C50.5423 3.49427 50.2245 3.35704 49.7767 3.35704C49.3974 3.35704 49.0742 3.53039 48.807 3.87709C48.5433 4.22379 48.4115 4.63911 48.4115 5.12304V8.28668H47.5231V4.99303C47.5231 3.90237 47.1024 3.35704 46.2609 3.35704C45.8709 3.35704 45.5494 3.52136 45.2966 3.85C45.0438 4.17503 44.9174 4.59938 44.9174 5.12304V8.28668H44.029V2.73948H44.9174V3.61706H44.9391C45.3327 2.94533 45.907 2.60946 46.6618 2.60946C47.041 2.60946 47.3714 2.716 47.6531 2.92908C47.9348 3.13854 48.128 3.41482 48.2328 3.75791C48.6445 2.99228 49.2584 2.60946 50.0746 2.60946C51.2953 2.60946 51.9056 3.36245 51.9056 4.86843V8.28668Z" fill="white"/>
<path d="M58.0704 8.28668H57.182V7.4091H57.1603C56.7919 8.08083 56.2213 8.41669 55.4485 8.41669C54.1267 8.41669 53.4658 7.6294 53.4658 6.0548V2.73948H54.3488V5.91395C54.3488 7.08406 54.7966 7.66912 55.6922 7.66912C56.1256 7.66912 56.4813 7.51022 56.7594 7.19241C57.0411 6.87099 57.182 6.45206 57.182 5.93562V2.73948H58.0704V8.28668Z" fill="white"/>
<path d="M64.4735 8.28668H63.5851V5.12304C63.5851 3.9457 63.1553 3.35704 62.2958 3.35704C61.8516 3.35704 61.4832 3.52497 61.1907 3.86084C60.9018 4.19309 60.7573 4.61383 60.7573 5.12304V8.28668H59.8689V2.73948H60.7573V3.6604H60.779C61.1979 2.95978 61.8046 2.60946 62.5991 2.60946C63.2059 2.60946 63.6699 2.80629 63.9914 3.19994C64.3128 3.58998 64.4735 4.15517 64.4735 4.89552V8.28668Z" fill="white"/>
<path d="M66.6079 1.33101C66.449 1.33101 66.3135 1.27684 66.2016 1.16849C66.0896 1.06015 66.0336 0.922912 66.0336 0.756785C66.0336 0.590658 66.0896 0.453422 66.2016 0.345078C66.3135 0.233123 66.449 0.177145 66.6079 0.177145C66.7704 0.177145 66.9076 0.233123 67.0196 0.345078C67.1351 0.453422 67.1929 0.590658 67.1929 0.756785C67.1929 0.915689 67.1351 1.05112 67.0196 1.16307C66.9076 1.27503 66.7704 1.33101 66.6079 1.33101ZM67.0412 8.28668H66.1528V2.73948H67.0412V8.28668Z" fill="white"/>
<path d="M73.4444 8.28668H72.1984L69.7498 5.62142H69.7282V8.28668H68.8398V0.0742188H69.7282V5.28014H69.7498L72.0792 2.73948H73.2439L70.6708 5.41557L73.4444 8.28668Z" fill="white"/>
<path d="M78.3252 8.28668H77.4368V7.41993H77.4152C77.0287 8.08444 76.4599 8.41669 75.7087 8.41669C75.1562 8.41669 74.7228 8.27043 74.4086 7.9779C74.098 7.68537 73.9427 7.29714 73.9427 6.8132C73.9427 5.77672 74.5531 5.1736 75.7738 5.00386L77.4368 4.77092C77.4368 3.82833 77.0558 3.35704 76.2938 3.35704C75.6257 3.35704 75.0226 3.58456 74.4845 4.0396V3.12951C75.0298 2.78281 75.6582 2.60946 76.3696 2.60946C77.6734 2.60946 78.3252 3.29925 78.3252 4.67883V8.28668ZM77.4368 5.48058L76.0988 5.66476C75.6871 5.72254 75.3765 5.82547 75.167 5.97354C74.9576 6.118 74.8528 6.37622 74.8528 6.7482C74.8528 7.01906 74.9485 7.24116 75.1399 7.41451C75.335 7.58425 75.5932 7.66912 75.9146 7.66912C76.3552 7.66912 76.7182 7.51563 77.0035 7.20866C77.2924 6.89807 77.4368 6.50623 77.4368 6.03313V5.48058Z" fill="white"/>
<path d="M79.6633 8.08624V7.13282C80.1472 7.49035 80.6799 7.66912 81.2614 7.66912C82.0414 7.66912 82.4315 7.4091 82.4315 6.88905C82.4315 6.74098 82.3972 6.61638 82.3286 6.51526C82.2635 6.41053 82.1733 6.31843 82.0577 6.23898C81.9457 6.15953 81.8121 6.08911 81.6568 6.02771C81.5051 5.96271 81.3408 5.89589 81.1639 5.82728C80.9183 5.72977 80.7016 5.63226 80.5138 5.53475C80.3296 5.43363 80.1743 5.32167 80.0479 5.19888C79.9251 5.07248 79.8312 4.92983 79.7662 4.77092C79.7048 4.61202 79.6741 4.42603 79.6741 4.21295C79.6741 3.95293 79.7337 3.7236 79.8529 3.52497C79.9721 3.32273 80.131 3.15479 80.3296 3.02117C80.5282 2.88394 80.754 2.78101 81.0068 2.71239C81.2632 2.64377 81.5268 2.60946 81.7977 2.60946C82.278 2.60946 82.7078 2.69253 83.087 2.85866V3.75791C82.6789 3.49066 82.2094 3.35704 81.6785 3.35704C81.5124 3.35704 81.3625 3.3769 81.2289 3.41663C81.0952 3.45274 80.9797 3.50511 80.8822 3.57372C80.7883 3.64234 80.7142 3.72541 80.6601 3.82292C80.6095 3.91681 80.5842 4.02155 80.5842 4.13711C80.5842 4.28157 80.6095 4.40255 80.6601 4.50006C80.7142 4.59757 80.7919 4.68425 80.893 4.76009C80.9941 4.83593 81.1169 4.90455 81.2614 4.96594C81.4058 5.02734 81.5702 5.09415 81.7543 5.16638C81.9999 5.26028 82.2202 5.35779 82.4152 5.45891C82.6103 5.55642 82.7764 5.66837 82.9136 5.79477C83.0508 5.91756 83.1556 6.06022 83.2278 6.22273C83.3036 6.38525 83.3416 6.57846 83.3416 6.80237C83.3416 7.07684 83.2802 7.3152 83.1574 7.51744C83.0382 7.71968 82.8775 7.88761 82.6753 8.02124C82.473 8.15486 82.2401 8.25418 81.9764 8.31918C81.7128 8.38419 81.4365 8.41669 81.1476 8.41669C80.577 8.41669 80.0822 8.30654 79.6633 8.08624Z" fill="white"/>
<path d="M85.1672 1.33101C85.0083 1.33101 84.8728 1.27684 84.7609 1.16849C84.6489 1.06015 84.5929 0.922912 84.5929 0.756785C84.5929 0.590658 84.6489 0.453422 84.7609 0.345078C84.8728 0.233123 85.0083 0.177145 85.1672 0.177145C85.3297 0.177145 85.4669 0.233123 85.5789 0.345078C85.6944 0.453422 85.7522 0.590658 85.7522 0.756785C85.7522 0.915689 85.6944 1.05112 85.5789 1.16307C85.4669 1.27503 85.3297 1.33101 85.1672 1.33101ZM85.6005 8.28668H84.7121V2.73948H85.6005V8.28668Z" fill="white"/>
<path d="M95.1781 8.28668H94.2897V7.34409H94.268C93.8563 8.05916 93.2207 8.41669 92.3612 8.41669C91.6642 8.41669 91.1062 8.16931 90.6873 7.67454C90.272 7.17616 90.0643 6.49901 90.0643 5.64309C90.0643 4.72578 90.2954 3.99085 90.7577 3.43829C91.22 2.88574 91.8357 2.60946 92.605 2.60946C93.367 2.60946 93.9213 2.90922 94.268 3.50872H94.2897V0.0742188H95.1781V8.28668ZM94.2897 5.77852V4.96053C94.2897 4.5127 94.1416 4.1335 93.8455 3.82292C93.5494 3.51233 93.1738 3.35704 92.7187 3.35704C92.177 3.35704 91.7509 3.55567 91.4403 3.95293C91.1297 4.35019 90.9744 4.89913 90.9744 5.59975C90.9744 6.23898 91.1225 6.74459 91.4186 7.11657C91.7184 7.48494 92.1192 7.66912 92.6212 7.66912C93.116 7.66912 93.5169 7.49035 93.8238 7.13282C94.1344 6.77528 94.2897 6.32385 94.2897 5.77852Z" fill="white"/>
<path d="M100.947 8.28668H100.059V7.41993H100.037C99.6509 8.08444 99.0821 8.41669 98.3309 8.41669C97.7784 8.41669 97.345 8.27043 97.0308 7.9779C96.7202 7.68537 96.5649 7.29714 96.5649 6.8132C96.5649 5.77672 97.1753 5.1736 98.3959 5.00386L100.059 4.77092C100.059 3.82833 99.678 3.35704 98.916 3.35704C98.2479 3.35704 97.6448 3.58456 97.1067 4.0396V3.12951C97.652 2.78281 98.2804 2.60946 98.9918 2.60946C100.296 2.60946 100.947 3.29925 100.947 4.67883V8.28668ZM100.059 5.48058L98.721 5.66476C98.3093 5.72254 97.9987 5.82547 97.7892 5.97354C97.5798 6.118 97.475 6.37622 97.475 6.7482C97.475 7.01906 97.5707 7.24116 97.7621 7.41451C97.9572 7.58425 98.2154 7.66912 98.5368 7.66912C98.9774 7.66912 99.3403 7.51563 99.6256 7.20866C99.9146 6.89807 100.059 6.50623 100.059 6.03313V5.48058Z" fill="white"/>
<path d="M107.226 8.28668H106.338V5.12304C106.338 3.9457 105.908 3.35704 105.048 3.35704C104.604 3.35704 104.236 3.52497 103.943 3.86084C103.654 4.19309 103.51 4.61383 103.51 5.12304V8.28668H102.621V2.73948H103.51V3.6604H103.531C103.95 2.95978 104.557 2.60946 105.352 2.60946C105.958 2.60946 106.422 2.80629 106.744 3.19994C107.065 3.58998 107.226 4.15517 107.226 4.89552V8.28668Z" fill="white"/>
<path d="M2.88003 17.16V17.9401H2.12162V24.1482H2.88003V24.9283H0.453125V24.1482H1.21153V17.9401H0.453125V17.16H2.88003Z" fill="white"/>
<path d="M8.65475 24.9283H7.76633V21.7647C7.76633 20.5873 7.33657 19.9986 6.47704 19.9986C6.03283 19.9986 5.66446 20.1666 5.37193 20.5024C5.08302 20.8347 4.93856 21.2554 4.93856 21.7647V24.9283H4.05014V19.3811H4.93856V20.302H4.96023C5.37916 19.6014 5.98588 19.2511 6.7804 19.2511C7.38713 19.2511 7.8512 19.4479 8.17262 19.8416C8.49404 20.2316 8.65475 20.7968 8.65475 21.5371V24.9283Z" fill="white"/>
<path d="M13.0752 17.4959C12.9018 17.3984 12.705 17.3496 12.4847 17.3496C11.8635 17.3496 11.5529 17.7415 11.5529 18.5252V19.3811H12.8531V20.1395H11.5529V24.9283H10.6699V20.1395H9.72194V19.3811H10.6699V18.4818C10.6699 17.9004 10.8379 17.4417 11.1737 17.1059C11.5096 16.7664 11.9285 16.5967 12.4305 16.5967C12.7014 16.5967 12.9163 16.6292 13.0752 16.6942V17.4959Z" fill="white"/>
<path d="M16.1305 25.0583C15.3107 25.0583 14.6552 24.8001 14.164 24.2836C13.6765 23.7636 13.4327 23.0756 13.4327 22.2197C13.4327 21.2879 13.6873 20.5602 14.1965 20.0366C14.7058 19.5129 15.3937 19.2511 16.2605 19.2511C17.0875 19.2511 17.7322 19.5057 18.1944 20.0149C18.6603 20.5241 18.8932 21.2302 18.8932 22.133C18.8932 23.0178 18.6422 23.7275 18.1403 24.262C17.6419 24.7929 16.9719 25.0583 16.1305 25.0583ZM16.1955 19.9986C15.6249 19.9986 15.1734 20.1937 14.8412 20.5837C14.5089 20.9701 14.3428 21.5046 14.3428 22.1872C14.3428 22.8445 14.5107 23.3627 14.8466 23.7419C15.1825 24.1211 15.6321 24.3107 16.1955 24.3107C16.7697 24.3107 17.2103 24.1247 17.5173 23.7528C17.8279 23.3808 17.9832 22.8517 17.9832 22.1655C17.9832 21.4721 17.8279 20.9376 17.5173 20.562C17.2103 20.1864 16.7697 19.9986 16.1955 19.9986Z" fill="white"/>
<path d="M23.2053 20.2803C23.05 20.1612 22.8261 20.1016 22.5336 20.1016C22.1544 20.1016 21.8366 20.2803 21.5802 20.6379C21.3274 20.9954 21.201 21.483 21.201 22.1005V24.9283H20.3125V19.3811H21.201V20.5241H21.2226C21.349 20.1341 21.5423 19.8307 21.8023 19.614C22.0623 19.3937 22.353 19.2836 22.6744 19.2836C22.9056 19.2836 23.0825 19.3089 23.2053 19.3594V20.2803Z" fill="white"/>
<path d="M32.0245 24.9283H31.1361V21.743C31.1361 21.129 31.0404 20.6848 30.849 20.4104C30.6612 20.1359 30.3434 19.9986 29.8956 19.9986C29.5164 19.9986 29.1931 20.172 28.9259 20.5187C28.6622 20.8654 28.5304 21.2807 28.5304 21.7647V24.9283H27.642V21.6346C27.642 20.544 27.2213 19.9986 26.3798 19.9986C25.9898 19.9986 25.6683 20.163 25.4155 20.4916C25.1627 20.8166 25.0363 21.241 25.0363 21.7647V24.9283H24.1479V19.3811H25.0363V20.2587H25.058C25.4517 19.5869 26.0259 19.2511 26.7807 19.2511C27.1599 19.2511 27.4903 19.3576 27.772 19.5707C28.0537 19.7802 28.2469 20.0564 28.3517 20.3995C28.7634 19.6339 29.3773 19.2511 30.1935 19.2511C31.4142 19.2511 32.0245 20.0041 32.0245 21.51V24.9283Z" fill="white"/>
<path d="M37.6746 24.9283H36.7862V24.0615H36.7646C36.3781 24.7261 35.8093 25.0583 35.0581 25.0583C34.5056 25.0583 34.0722 24.912 33.758 24.6195C33.4474 24.327 33.2921 23.9388 33.2921 23.4548C33.2921 22.4183 33.9025 21.8152 35.1231 21.6455L36.7862 21.4125C36.7862 20.4699 36.4052 19.9986 35.6432 19.9986C34.9751 19.9986 34.372 20.2262 33.8339 20.6812V19.7711C34.3792 19.4244 35.0076 19.2511 35.719 19.2511C37.0228 19.2511 37.6746 19.9409 37.6746 21.3204V24.9283ZM36.7862 22.1222L35.4482 22.3064C35.0365 22.3642 34.7259 22.4671 34.5164 22.6152C34.307 22.7596 34.2022 23.0178 34.2022 23.3898C34.2022 23.6607 34.2979 23.8828 34.4893 24.0561C34.6844 24.2259 34.9426 24.3107 35.264 24.3107C35.7046 24.3107 36.0675 24.1572 36.3529 23.8503C36.6418 23.5397 36.7862 23.1478 36.7862 22.6747V22.1222Z" fill="white"/>
<path d="M41.9217 24.8741C41.7123 24.9897 41.436 25.0475 41.0929 25.0475C40.1214 25.0475 39.6357 24.5058 39.6357 23.4223V20.1395H38.6822V19.3811H39.6357V18.0268L40.5241 17.7397V19.3811H41.9217V20.1395H40.5241V23.2652C40.5241 23.6372 40.5873 23.9026 40.7137 24.0615C40.8401 24.2204 41.0496 24.2999 41.3421 24.2999C41.566 24.2999 41.7592 24.2385 41.9217 24.1157V24.8741Z" fill="white"/>
<path d="M43.5631 17.9726C43.4042 17.9726 43.2688 17.9184 43.1568 17.8101C43.0449 17.7018 42.9889 17.5645 42.9889 17.3984C42.9889 17.2323 43.0449 17.095 43.1568 16.9867C43.2688 16.8747 43.4042 16.8188 43.5631 16.8188C43.7257 16.8188 43.8629 16.8747 43.9748 16.9867C44.0904 17.095 44.1482 17.2323 44.1482 17.3984C44.1482 17.5573 44.0904 17.6927 43.9748 17.8047C43.8629 17.9166 43.7257 17.9726 43.5631 17.9726ZM43.9965 24.9283H43.1081V19.3811H43.9965V24.9283Z" fill="white"/>
<path d="M50.3996 24.9283H49.1537L46.7051 22.263H46.6834V24.9283H45.795V16.7158H46.6834V21.9218H46.7051L49.0345 19.3811H50.1992L47.626 22.0572L50.3996 24.9283Z" fill="white"/>
<path d="M55.2805 24.9283H54.3921V24.0615H54.3704C53.984 24.7261 53.4152 25.0583 52.664 25.0583C52.1115 25.0583 51.6781 24.912 51.3639 24.6195C51.0533 24.327 50.898 23.9388 50.898 23.4548C50.898 22.4183 51.5084 21.8152 52.729 21.6455L54.3921 21.4125C54.3921 20.4699 54.0111 19.9986 53.2491 19.9986C52.581 19.9986 51.9778 20.2262 51.4397 20.6812V19.7711C51.9851 19.4244 52.6135 19.2511 53.3249 19.2511C54.6287 19.2511 55.2805 19.9409 55.2805 21.3204V24.9283ZM54.3921 22.1222L53.0541 22.3064C52.6423 22.3642 52.3318 22.4671 52.1223 22.6152C51.9128 22.7596 51.8081 23.0178 51.8081 23.3898C51.8081 23.6607 51.9038 23.8828 52.0952 24.0561C52.2902 24.2259 52.5485 24.3107 52.8699 24.3107C53.3105 24.3107 53.6734 24.1572 53.9587 23.8503C54.2476 23.5397 54.3921 23.1478 54.3921 22.6747V22.1222Z" fill="white"/>
<path d="M65.5244 24.9283H64.2568L61.2557 21.3746C61.1437 21.241 61.0751 21.1507 61.0498 21.1038H61.0282V24.9283H60.1181V17.16H61.0282V20.8112H61.0498C61.1004 20.7318 61.169 20.6433 61.2557 20.5458L64.1593 17.16H65.2915L61.9599 20.8871L65.5244 24.9283Z" fill="white"/>
<path d="M68.6014 25.0583C67.7816 25.0583 67.1261 24.8001 66.635 24.2836C66.1474 23.7636 65.9036 23.0756 65.9036 22.2197C65.9036 21.2879 66.1582 20.5602 66.6675 20.0366C67.1767 19.5129 67.8647 19.2511 68.7314 19.2511C69.5584 19.2511 70.2031 19.5057 70.6653 20.0149C71.1312 20.5241 71.3642 21.2302 71.3642 22.133C71.3642 23.0178 71.1132 23.7275 70.6112 24.262C70.1128 24.7929 69.4429 25.0583 68.6014 25.0583ZM68.6664 19.9986C68.0958 19.9986 67.6444 20.1937 67.3121 20.5837C66.9799 20.9701 66.8137 21.5046 66.8137 22.1872C66.8137 22.8445 66.9817 23.3627 67.3175 23.7419C67.6534 24.1211 68.103 24.3107 68.6664 24.3107C69.2406 24.3107 69.6812 24.1247 69.9882 23.7528C70.2988 23.3808 70.4541 22.8517 70.4541 22.1655C70.4541 21.4721 70.2988 20.9376 69.9882 20.562C69.6812 20.1864 69.2406 19.9986 68.6664 19.9986Z" fill="white"/>
<path d="M75.3566 24.8741C75.1472 24.9897 74.8709 25.0475 74.5278 25.0475C73.5563 25.0475 73.0706 24.5058 73.0706 23.4223V20.1395H72.1171V19.3811H73.0706V18.0268L73.959 17.7397V19.3811H75.3566V20.1395H73.959V23.2652C73.959 23.6372 74.0222 23.9026 74.1486 24.0615C74.275 24.2204 74.4845 24.2999 74.777 24.2999C75.0009 24.2999 75.1941 24.2385 75.3566 24.1157V24.8741Z" fill="white"/>
<path d="M80.5138 24.9283H79.6254V24.0615H79.6037C79.2173 24.7261 78.6485 25.0583 77.8973 25.0583C77.3447 25.0583 76.9114 24.912 76.5972 24.6195C76.2866 24.327 76.1313 23.9388 76.1313 23.4548C76.1313 22.4183 76.7416 21.8152 77.9623 21.6455L79.6254 21.4125C79.6254 20.4699 79.2444 19.9986 78.4824 19.9986C77.8142 19.9986 77.2111 20.2262 76.673 20.6812V19.7711C77.2183 19.4244 77.8467 19.2511 78.5582 19.2511C79.8619 19.2511 80.5138 19.9409 80.5138 21.3204V24.9283ZM79.6254 22.1222L78.2873 22.3064C77.8756 22.3642 77.565 22.4671 77.3556 22.6152C77.1461 22.7596 77.0414 23.0178 77.0414 23.3898C77.0414 23.6607 77.1371 23.8828 77.3285 24.0561C77.5235 24.2259 77.7817 24.3107 78.1031 24.3107C78.5437 24.3107 78.9067 24.1572 79.192 23.8503C79.4809 23.5397 79.6254 23.1478 79.6254 22.6747V22.1222Z" fill="white"/>
<path d="M86.2614 21.9922V24.9283H85.3513V17.16H87.4857C88.3164 17.16 88.9592 17.3623 89.4142 17.7668C89.8729 18.1712 90.1022 18.7419 90.1022 19.4786C90.1022 20.2153 89.8476 20.8185 89.3384 21.2879C88.8328 21.7574 88.1484 21.9922 87.2853 21.9922H86.2614ZM86.2614 17.9835V21.1688H87.2149C87.8433 21.1688 88.3218 21.0261 88.6504 20.7408C88.9827 20.4519 89.1488 20.0456 89.1488 19.5219C89.1488 18.4963 88.5421 17.9835 87.3286 17.9835H86.2614Z" fill="white"/>
<path d="M95.0644 24.9283H94.176V24.0615H94.1543C93.7679 24.7261 93.1991 25.0583 92.4479 25.0583C91.8953 25.0583 91.4619 24.912 91.1477 24.6195C90.8372 24.327 90.6819 23.9388 90.6819 23.4548C90.6819 22.4183 91.2922 21.8152 92.5129 21.6455L94.176 21.4125C94.176 20.4699 93.7949 19.9986 93.0329 19.9986C92.3648 19.9986 91.7617 20.2262 91.2236 20.6812V19.7711C91.7689 19.4244 92.3973 19.2511 93.1088 19.2511C94.4125 19.2511 95.0644 19.9409 95.0644 21.3204V24.9283ZM94.176 22.1222L92.8379 22.3064C92.4262 22.3642 92.1156 22.4671 91.9062 22.6152C91.6967 22.7596 91.592 23.0178 91.592 23.3898C91.592 23.6607 91.6877 23.8828 91.8791 24.0561C92.0741 24.2259 92.3323 24.3107 92.6537 24.3107C93.0943 24.3107 93.4573 24.1572 93.7426 23.8503C94.0315 23.5397 94.176 23.1478 94.176 22.6747V22.1222Z" fill="white"/>
<path d="M97.6267 24.9283H96.7383V16.7158H97.6267V24.9283Z" fill="white"/>
<path d="M103.884 22.3768H99.9669C99.9814 22.9944 100.148 23.4711 100.465 23.8069C100.783 24.1428 101.22 24.3107 101.776 24.3107C102.401 24.3107 102.975 24.1049 103.499 23.6932V24.5274C103.011 24.8813 102.367 25.0583 101.565 25.0583C100.781 25.0583 100.166 24.8073 99.7177 24.3053C99.2699 23.7997 99.046 23.0901 99.046 22.1764C99.046 21.3132 99.2898 20.6108 99.7773 20.0691C100.268 19.5237 100.877 19.2511 101.603 19.2511C102.329 19.2511 102.89 19.4858 103.288 19.9553C103.685 20.4248 103.884 21.0767 103.884 21.9109V22.3768ZM102.973 21.6238C102.97 21.111 102.845 20.7119 102.6 20.4266C102.358 20.1413 102.02 19.9986 101.587 19.9986C101.168 19.9986 100.812 20.1485 100.519 20.4483C100.227 20.748 100.046 21.1399 99.9778 21.6238H102.973Z" fill="white"/>
<path d="M113.109 24.9283H112.221V21.743C112.221 21.129 112.125 20.6848 111.934 20.4104C111.746 20.1359 111.428 19.9986 110.98 19.9986C110.601 19.9986 110.278 20.172 110.01 20.5187C109.747 20.8654 109.615 21.2807 109.615 21.7647V24.9283H108.727V21.6346C108.727 20.544 108.306 19.9986 107.464 19.9986C107.074 19.9986 106.753 20.163 106.5 20.4916C106.247 20.8166 106.121 21.241 106.121 21.7647V24.9283H105.232V19.3811H106.121V20.2587H106.143C106.536 19.5869 107.11 19.2511 107.865 19.2511C108.244 19.2511 108.575 19.3576 108.857 19.5707C109.138 19.7802 109.331 20.0564 109.436 20.3995C109.848 19.6339 110.462 19.2511 111.278 19.2511C112.499 19.2511 113.109 20.0041 113.109 21.51V24.9283Z" fill="white"/>
<path d="M115.698 24.1265H115.677V24.9283H114.788V16.7158H115.677V20.3562H115.698C116.135 19.6194 116.775 19.2511 117.616 19.2511C118.328 19.2511 118.884 19.5003 119.285 19.9986C119.689 20.4934 119.891 21.1579 119.891 21.9922C119.891 22.9203 119.666 23.6643 119.214 24.2241C118.763 24.7802 118.145 25.0583 117.362 25.0583C116.628 25.0583 116.074 24.7477 115.698 24.1265ZM115.677 21.8892V22.6639C115.677 23.1226 115.825 23.5126 116.121 23.834C116.421 24.1518 116.8 24.3107 117.259 24.3107C117.797 24.3107 118.217 24.1049 118.521 23.6932C118.828 23.2815 118.981 22.7091 118.981 21.9759C118.981 21.3584 118.839 20.8744 118.553 20.5241C118.268 20.1738 117.882 19.9986 117.394 19.9986C116.878 19.9986 116.462 20.1792 116.148 20.5404C115.834 20.8979 115.677 21.3475 115.677 21.8892Z" fill="white"/>
<path d="M125.13 24.9283H124.241V24.0615H124.22C123.833 24.7261 123.264 25.0583 122.513 25.0583C121.961 25.0583 121.527 24.912 121.213 24.6195C120.903 24.327 120.747 23.9388 120.747 23.4548C120.747 22.4183 121.358 21.8152 122.578 21.6455L124.241 21.4125C124.241 20.4699 123.86 19.9986 123.098 19.9986C122.43 19.9986 121.827 20.2262 121.289 20.6812V19.7711C121.834 19.4244 122.463 19.2511 123.174 19.2511C124.478 19.2511 125.13 19.9409 125.13 21.3204V24.9283ZM124.241 22.1222L122.903 22.3064C122.492 22.3642 122.181 22.4671 121.972 22.6152C121.762 22.7596 121.657 23.0178 121.657 23.3898C121.657 23.6607 121.753 23.8828 121.944 24.0561C122.139 24.2259 122.398 24.3107 122.719 24.3107C123.16 24.3107 123.523 24.1572 123.808 23.8503C124.097 23.5397 124.241 23.1478 124.241 22.6747V22.1222Z" fill="white"/>
<path d="M131.408 24.9283H130.52V21.7647C130.52 20.5873 130.09 19.9986 129.231 19.9986C128.786 19.9986 128.418 20.1666 128.125 20.5024C127.837 20.8347 127.692 21.2554 127.692 21.7647V24.9283H126.804V19.3811H127.692V20.302H127.714C128.133 19.6014 128.739 19.2511 129.534 19.2511C130.141 19.2511 130.605 19.4479 130.926 19.8416C131.248 20.2316 131.408 20.7968 131.408 21.5371V24.9283Z" fill="white"/>
<path d="M137.822 24.4841C137.822 26.5209 136.847 27.5394 134.897 27.5394C134.211 27.5394 133.611 27.4094 133.098 27.1493V26.2609C133.723 26.6076 134.319 26.781 134.886 26.781C136.251 26.781 136.934 26.0551 136.934 24.6033V23.9965H136.912C136.49 24.7044 135.854 25.0583 135.005 25.0583C134.316 25.0583 133.759 24.8127 133.337 24.3216C132.918 23.8268 132.708 23.1641 132.708 22.3335C132.708 21.3909 132.934 20.6415 133.386 20.0853C133.841 19.5292 134.462 19.2511 135.249 19.2511C135.997 19.2511 136.551 19.5508 136.912 20.1503H136.934V19.3811H137.822V24.4841ZM136.934 22.4201V21.6021C136.934 21.1615 136.784 20.7841 136.484 20.4699C136.188 20.1557 135.818 19.9986 135.374 19.9986C134.825 19.9986 134.395 20.1991 134.084 20.6C133.774 20.9972 133.619 21.5552 133.619 22.2739C133.619 22.8914 133.767 23.3862 134.063 23.7582C134.362 24.1265 134.758 24.3107 135.249 24.3107C135.747 24.3107 136.152 24.1338 136.463 23.7798C136.777 23.4259 136.934 22.9727 136.934 22.4201Z" fill="white"/>
</svg>
