<svg width="24" height="24" viewBox="0 0 24 24" fill="none" xmlns="http://www.w3.org/2000/svg">
<path d="M19 6.91304V19.8261C19 20.1374 18.8699 20.436 18.6382 20.6562C18.4065 20.8763 18.0923 21 17.7647 21H6.23529C5.90767 21 5.59347 20.8763 5.36181 20.6562C5.13015 20.436 5 20.1374 5 19.8261V4.17391C5 3.86257 5.13015 3.56398 5.36181 3.34383C5.59347 3.12368 5.90767 3 6.23529 3H14.8824L19 6.91304Z" stroke="black" stroke-linecap="round" stroke-linejoin="round"/>
<path d="M14.8823 3V5.73913C14.8823 6.05047 15.0125 6.34906 15.2441 6.56921C15.4758 6.78936 15.79 6.91304 16.1176 6.91304H19" stroke="black" stroke-linecap="round" stroke-linejoin="round"/>
<path d="M8.29395 10.8262H15.7057M8.29395 13.174H15.7057M8.29395 15.5218H15.7057M8.29395 17.8697H12.4116" stroke="black" stroke-linecap="round" stroke-linejoin="round"/>
</svg>
