<svg width="24" height="24" viewBox="0 0 24 24" fill="none" xmlns="http://www.w3.org/2000/svg">
<path d="M12 21.375C12.1435 21.3741 12.2826 21.3233 12.3945 21.2306C12.6364 21.0075 19 15.7181 19 10.2188C19 8.30422 18.2625 6.4681 16.9497 5.11432C15.637 3.76054 13.8565 3 12 3C10.1435 3 8.36301 3.76054 7.05025 5.11432C5.7375 6.4681 5 8.30422 5 10.2188C5 15.7181 11.3636 21.0075 11.6055 21.2306C11.7174 21.3233 11.8565 21.3741 12 21.375ZM6.27273 10.2188C6.27273 8.65232 6.87613 7.15004 7.95021 6.0424C9.02428 4.93476 10.481 4.3125 12 4.3125C13.519 4.3125 14.9757 4.93476 16.0498 6.0424C17.1239 7.15004 17.7273 8.65232 17.7273 10.2188C17.7273 14.3531 13.3555 18.6253 12 19.8591C10.6445 18.6253 6.27273 14.3531 6.27273 10.2188Z" fill="#4E4F56"/>
<path d="M15.182 10.2188C15.182 9.56978 14.9954 8.93539 14.6458 8.39579C14.2961 7.85619 13.7992 7.43562 13.2178 7.18727C12.6364 6.93892 11.9966 6.87394 11.3794 7.00055C10.7622 7.12716 10.1953 7.43967 9.75029 7.89856C9.30531 8.35745 9.00227 8.94211 8.8795 9.57861C8.75673 10.2151 8.81974 10.8749 9.06056 11.4744C9.30139 12.074 9.70921 12.5865 10.2325 12.947C10.7557 13.3076 11.3709 13.5 12.0002 13.5C12.844 13.5 13.6534 13.1543 14.2501 12.5389C14.8468 11.9236 15.182 11.089 15.182 10.2188ZM10.0911 10.2188C10.0911 9.82937 10.2031 9.44873 10.4128 9.12497C10.6226 8.80121 10.9208 8.54887 11.2696 8.39986C11.6184 8.25085 12.0023 8.21187 12.3726 8.28783C12.743 8.3638 13.0831 8.5513 13.3501 8.82664C13.6171 9.10197 13.7989 9.45277 13.8726 9.83467C13.9463 10.2166 13.9084 10.6124 13.7639 10.9722C13.6195 11.3319 13.3748 11.6394 13.0608 11.8557C12.7469 12.072 12.3778 12.1875 12.0002 12.1875C11.4939 12.1875 11.0083 11.9801 10.6502 11.6109C10.2922 11.2417 10.0911 10.7409 10.0911 10.2188Z" fill="#4E4F56"/>
</svg>
