<svg width="40" height="40" viewBox="0 0 40 40" fill="none" xmlns="http://www.w3.org/2000/svg">
<path d="M27.0546 21.7793C26.8244 21.5503 26.6419 21.2779 26.5176 20.978C26.3934 20.678 26.3299 20.3563 26.3307 20.0317V17.9987C26.3307 16.4078 25.6987 14.882 24.5737 13.757C23.4487 12.632 21.9229 12 20.332 12C18.741 12 17.2152 12.632 16.0902 13.757C14.9652 14.882 14.3332 16.4078 14.3332 17.9987V20.0317C14.3341 20.3563 14.2705 20.678 14.1463 20.978C14.022 21.2779 13.8395 21.5503 13.6094 21.7793C13.3184 22.0702 13.1203 22.4409 13.04 22.8444C12.9597 23.248 13.0009 23.6663 13.1584 24.0464C13.3158 24.4265 13.5825 24.7514 13.9246 24.98C14.2667 25.2086 14.6689 25.3306 15.0804 25.3305H17.066C17.219 26.0839 17.6277 26.7612 18.2229 27.2477C18.8181 27.7342 19.5632 28 20.332 28C21.1007 28 21.8458 27.7342 22.441 27.2477C23.0362 26.7612 23.445 26.0839 23.5979 25.3305H25.5842C25.9957 25.3306 26.3979 25.2086 26.74 24.98C27.0821 24.7514 27.3488 24.4265 27.5062 24.0464C27.6637 23.6663 27.7049 23.248 27.6246 22.8444C27.5443 22.4409 27.3455 22.0702 27.0546 21.7793ZM20.332 26.6636C19.9199 26.6619 19.5184 26.5329 19.1824 26.2943C18.8464 26.0557 18.5924 25.7191 18.455 25.3305H22.2089C22.0715 25.7191 21.8175 26.0557 21.4815 26.2943C21.1455 26.5329 20.7441 26.6619 20.332 26.6636ZM25.5835 23.9975H15.0804C14.9326 23.9976 14.788 23.9538 14.6651 23.8717C14.5421 23.7896 14.4463 23.6729 14.3897 23.5363C14.3331 23.3997 14.3183 23.2494 14.3472 23.1044C14.376 22.9594 14.4473 22.8263 14.5518 22.7218C14.9062 22.3693 15.1871 21.9501 15.3784 21.4883C15.5697 21.0266 15.6676 20.5315 15.6663 20.0317V17.9987C15.6663 16.7613 16.1578 15.5746 17.0328 14.6996C17.9078 13.8246 19.0945 13.3331 20.332 13.3331C21.5694 13.3331 22.7561 13.8246 23.6311 14.6996C24.5061 15.5746 24.9977 16.7613 24.9977 17.9987V20.0317C24.9964 20.5315 25.0942 21.0266 25.2855 21.4883C25.4768 21.9501 25.7577 22.3693 26.1121 22.7218C26.2167 22.8263 26.2879 22.9594 26.3168 23.1044C26.3456 23.2494 26.3308 23.3997 26.2743 23.5363C26.2177 23.6729 26.1218 23.7896 25.9989 23.8717C25.8759 23.9538 25.7314 23.9976 25.5835 23.9975Z" fill="black"/>
</svg>
