<svg width="83" height="29" viewBox="0 0 83 29" fill="none" xmlns="http://www.w3.org/2000/svg">
<path d="M1.49784 5.88598V8.99179H0.535156V0.77457H2.79288C3.67153 0.77457 4.35152 0.9885 4.83286 1.41636C5.31803 1.84422 5.56061 2.44781 5.56061 3.22713C5.56061 4.00645 5.29128 4.64442 4.75264 5.14104C4.21781 5.63766 3.49389 5.88598 2.58086 5.88598H1.49784ZM1.49784 1.64557V5.01497H2.50637C3.17108 5.01497 3.67726 4.86408 4.02489 4.56228C4.37635 4.25667 4.55208 3.8269 4.55208 3.27297C4.55208 2.18804 3.91029 1.64557 2.62671 1.64557H1.49784Z" fill="white"/>
<path d="M11.268 6.29283H7.12497C7.14025 6.94608 7.31598 7.45034 7.65216 7.80562C7.98833 8.16089 8.45058 8.33853 9.03889 8.33853C9.69978 8.33853 10.3072 8.12078 10.8611 7.68528V8.56774C10.3454 8.94212 9.66348 9.12931 8.8154 9.12931C7.98642 9.12931 7.33508 8.86381 6.86138 8.3328C6.38768 7.79798 6.15083 7.04731 6.15083 6.0808C6.15083 5.16778 6.40869 4.42476 6.92441 3.85173C7.44396 3.27488 8.08766 2.98646 8.85552 2.98646C9.62337 2.98646 10.2174 3.23477 10.6376 3.73139C11.0579 4.22802 11.268 4.91756 11.268 5.80002V6.29283ZM10.3053 5.49632C10.3015 4.95385 10.1697 4.53172 9.90989 4.22993C9.65393 3.92813 9.29675 3.77723 8.83833 3.77723C8.39518 3.77723 8.0189 3.93577 7.70946 4.25285C7.40003 4.56992 7.20902 4.98441 7.13643 5.49632H10.3053Z" fill="white"/>
<path d="M21.0266 8.99179H20.0869V5.62238C20.0869 4.97295 19.9856 4.50307 19.7832 4.21274C19.5845 3.9224 19.2483 3.77723 18.7746 3.77723C18.3735 3.77723 18.0316 3.9606 17.7489 4.32734C17.47 4.69408 17.3306 5.1334 17.3306 5.6453V8.99179H16.3908V5.50778C16.3908 4.35408 15.9458 3.77723 15.0557 3.77723C14.6431 3.77723 14.3031 3.95105 14.0357 4.29869C13.7683 4.64251 13.6346 5.09138 13.6346 5.6453V8.99179H12.6948V3.12398H13.6346V4.05229H13.6575C14.0739 3.34173 14.6813 2.98646 15.4797 2.98646C15.8808 2.98646 16.2304 3.09915 16.5284 3.32454C16.8263 3.54611 17.0307 3.83836 17.1415 4.20127C17.577 3.3914 18.2264 2.98646 19.0898 2.98646C20.381 2.98646 21.0266 3.78296 21.0266 5.37598V8.99179Z" fill="white"/>
<path d="M27.519 6.29283H23.376C23.3913 6.94608 23.567 7.45034 23.9032 7.80562C24.2394 8.16089 24.7016 8.33853 25.2899 8.33853C25.9508 8.33853 26.5582 8.12078 27.1122 7.68528V8.56774C26.5964 8.94212 25.9145 9.12931 25.0665 9.12931C24.2375 9.12931 23.5861 8.86381 23.1124 8.3328C22.6387 7.79798 22.4019 7.04731 22.4019 6.0808C22.4019 5.16778 22.6597 4.42476 23.1755 3.85173C23.695 3.27488 24.3387 2.98646 25.1066 2.98646C25.8744 2.98646 26.4685 3.23477 26.8887 3.73139C27.3089 4.22802 27.519 4.91756 27.519 5.80002V6.29283ZM26.5563 5.49632C26.5525 4.95385 26.4207 4.53172 26.1609 4.22993C25.905 3.92813 25.5478 3.77723 25.0894 3.77723C24.6462 3.77723 24.27 3.93577 23.9605 4.25285C23.6511 4.56992 23.4601 4.98441 23.3875 5.49632H26.5563Z" fill="white"/>
<path d="M32.0058 4.07521C31.8416 3.94914 31.6047 3.88611 31.2953 3.88611C30.8942 3.88611 30.558 4.07521 30.2867 4.45341C30.0193 4.8316 29.8856 5.34733 29.8856 6.00058V8.99179H28.9459V3.12398H29.8856V4.33307H29.9085C30.0423 3.92049 30.2466 3.5996 30.5217 3.37038C30.7967 3.13735 31.1043 3.02084 31.4443 3.02084C31.6888 3.02084 31.8759 3.04758 32.0058 3.10106V4.07521Z" fill="white"/>
<path d="M33.5072 1.63411C33.3391 1.63411 33.1958 1.57681 33.0774 1.4622C32.959 1.3476 32.8997 1.20243 32.8997 1.0267C32.8997 0.850974 32.959 0.705807 33.0774 0.591201C33.1958 0.472776 33.3391 0.413563 33.5072 0.413563C33.6791 0.413563 33.8242 0.472776 33.9427 0.591201C34.0649 0.705807 34.126 0.850974 34.126 1.0267C34.126 1.19479 34.0649 1.33805 33.9427 1.45647C33.8242 1.5749 33.6791 1.63411 33.5072 1.63411ZM33.9656 8.99179H33.0258V3.12398H33.9656V8.99179Z" fill="white"/>
<path d="M40.7388 8.99179H39.799V5.6453C39.799 4.39992 39.3444 3.77723 38.4352 3.77723C37.9653 3.77723 37.5757 3.95487 37.2662 4.31015C36.9606 4.66161 36.8078 5.10666 36.8078 5.6453V8.99179H35.868V3.12398H36.8078V4.09813H36.8307C37.2739 3.35701 37.9157 2.98646 38.7561 2.98646C39.3979 2.98646 39.8888 3.19466 40.2288 3.61106C40.5688 4.02364 40.7388 4.62149 40.7388 5.40463V8.99179Z" fill="white"/>
<path d="M45.237 8.93448C45.0155 9.05673 44.7232 9.11785 44.3603 9.11785C43.3327 9.11785 42.8189 8.54482 42.8189 7.39877V3.92622H41.8103V3.12398H42.8189V1.69141L43.7586 1.38771V3.12398H45.237V3.92622H43.7586V7.23259C43.7586 7.62607 43.8255 7.90685 43.9592 8.07494C44.0929 8.24303 44.3145 8.32707 44.6239 8.32707C44.8607 8.32707 45.0651 8.26213 45.237 8.13224V8.93448Z" fill="white"/>
<path d="M50.6923 8.99179H49.7525V8.07494H49.7296C49.3208 8.77785 48.7191 9.12931 47.9245 9.12931C47.34 9.12931 46.8816 8.97459 46.5493 8.66516C46.2207 8.35572 46.0565 7.94505 46.0565 7.43315C46.0565 6.33676 46.7021 5.69879 47.9933 5.51924L49.7525 5.27284C49.7525 4.27577 49.3495 3.77723 48.5434 3.77723C47.8367 3.77723 47.1987 4.01791 46.6295 4.49925V3.53656C47.2063 3.16983 47.8711 2.98646 48.6236 2.98646C50.0027 2.98646 50.6923 3.71611 50.6923 5.17542V8.99179ZM49.7525 6.0235L48.3371 6.21833C47.9016 6.27945 47.5731 6.38833 47.3515 6.54496C47.1299 6.69776 47.0191 6.97091 47.0191 7.36439C47.0191 7.6509 47.1204 7.88584 47.3229 8.06921C47.5291 8.24876 47.8023 8.33853 48.1423 8.33853C48.6083 8.33853 48.9923 8.17618 49.2941 7.85146C49.5997 7.52292 49.7525 7.10843 49.7525 6.60799V6.0235Z" fill="white"/>
<path d="M57.3336 8.99179H56.3939V5.61092C56.3939 4.38846 55.9393 3.77723 55.0301 3.77723C54.5717 3.77723 54.1858 3.95487 53.8726 4.31015C53.5593 4.66161 53.4027 5.1143 53.4027 5.66823V8.99179H52.4629V0.304688H53.4027V4.09813H53.4256C53.8764 3.35701 54.5182 2.98646 55.351 2.98646C56.6728 2.98646 57.3336 3.78296 57.3336 5.37598V8.99179Z" fill="white"/>
<path d="M6.25397 25.4216H4.91309L1.73851 21.6626C1.62009 21.5212 1.5475 21.4257 1.52076 21.3761H1.49784V25.4216H0.535156V17.2044H1.49784V21.0666H1.52076C1.57425 20.9826 1.64683 20.889 1.73851 20.7858L4.80994 17.2044H6.00757L2.48345 21.1468L6.25397 25.4216Z" fill="white"/>
<path d="M9.50877 25.5592C8.64159 25.5592 7.94822 25.286 7.42868 24.7397C6.91295 24.1896 6.65509 23.4619 6.65509 22.5565C6.65509 21.5709 6.92441 20.8011 7.46306 20.2472C8.0017 19.6933 8.72945 19.4163 9.64629 19.4163C10.5211 19.4163 11.203 19.6856 11.692 20.2243C12.1848 20.7629 12.4312 21.5098 12.4312 22.4648C12.4312 23.4008 12.1657 24.1514 11.6347 24.7168C11.1075 25.2784 10.3989 25.5592 9.50877 25.5592ZM9.57753 20.2071C8.97394 20.2071 8.49642 20.4134 8.14496 20.8259C7.7935 21.2347 7.61778 21.8001 7.61778 22.5221C7.61778 23.2174 7.79541 23.7656 8.15069 24.1667C8.50597 24.5678 8.98158 24.7684 9.57753 24.7684C10.1849 24.7684 10.651 24.5716 10.9757 24.1782C11.3043 23.7847 11.4685 23.225 11.4685 22.4992C11.4685 21.7657 11.3043 21.2003 10.9757 20.803C10.651 20.4057 10.1849 20.2071 9.57753 20.2071Z" fill="white"/>
<path d="M16.6544 25.3643C16.4328 25.4866 16.1406 25.5477 15.7777 25.5477C14.7501 25.5477 14.2362 24.9747 14.2362 23.8286V20.3561H13.2277V19.5538H14.2362V18.1213L15.176 17.8176V19.5538H16.6544V20.3561H15.176V23.6624C15.176 24.0559 15.2429 24.3367 15.3766 24.5048C15.5103 24.6729 15.7318 24.7569 16.0413 24.7569C16.2781 24.7569 16.4825 24.692 16.6544 24.5621V25.3643Z" fill="white"/>
<path d="M22.1096 25.4216H21.1699V24.5048H21.147C20.7382 25.2077 20.1365 25.5592 19.3419 25.5592C18.7574 25.5592 18.299 25.4044 17.9667 25.095C17.6381 24.7856 17.4739 24.3749 17.4739 23.863C17.4739 22.7666 18.1195 22.1286 19.4107 21.9491L21.1699 21.7027C21.1699 20.7056 20.7668 20.2071 19.9608 20.2071C19.2541 20.2071 18.6161 20.4478 18.0469 20.9291V19.9664C18.6237 19.5997 19.2884 19.4163 20.041 19.4163C21.4201 19.4163 22.1096 20.146 22.1096 21.6053V25.4216ZM21.1699 22.4533L19.7545 22.6482C19.319 22.7093 18.9905 22.8182 18.7689 22.9748C18.5473 23.1276 18.4365 23.4008 18.4365 23.7942C18.4365 24.0807 18.5378 24.3157 18.7402 24.4991C18.9465 24.6786 19.2197 24.7684 19.5597 24.7684C20.0257 24.7684 20.4097 24.606 20.7115 24.2813C21.0171 23.9528 21.1699 23.5383 21.1699 23.0378V22.4533Z" fill="white"/>
<path d="M28.1895 22.3158V25.4216H27.2268V17.2044H29.4845C30.3631 17.2044 31.0431 17.4183 31.5245 17.8462C32.0096 18.2741 32.2522 18.8777 32.2522 19.657C32.2522 20.4363 31.9829 21.0743 31.4443 21.5709C30.9094 22.0675 30.1855 22.3158 29.2725 22.3158H28.1895ZM28.1895 18.0754V21.4448H29.198C29.8627 21.4448 30.3689 21.2939 30.7165 20.9921C31.068 20.6865 31.2437 20.2567 31.2437 19.7028C31.2437 18.6179 30.6019 18.0754 29.3183 18.0754H28.1895Z" fill="white"/>
<path d="M37.5012 25.4216H36.5614V24.5048H36.5385C36.1297 25.2077 35.528 25.5592 34.7334 25.5592C34.149 25.5592 33.6905 25.4044 33.3582 25.095C33.0296 24.7856 32.8654 24.3749 32.8654 23.863C32.8654 22.7666 33.511 22.1286 34.8022 21.9491L36.5614 21.7027C36.5614 20.7056 36.1584 20.2071 35.3523 20.2071C34.6456 20.2071 34.0076 20.4478 33.4384 20.9291V19.9664C34.0152 19.5997 34.68 19.4163 35.4325 19.4163C36.8116 19.4163 37.5012 20.146 37.5012 21.6053V25.4216ZM36.5614 22.4533L35.146 22.6482C34.7105 22.7093 34.382 22.8182 34.1604 22.9748C33.9388 23.1276 33.8281 23.4008 33.8281 23.7942C33.8281 24.0807 33.9293 24.3157 34.1318 24.4991C34.3381 24.6786 34.6112 24.7684 34.9512 24.7684C35.4173 24.7684 35.8012 24.606 36.103 24.2813C36.4086 23.9528 36.5614 23.5383 36.5614 23.0378V22.4533Z" fill="white"/>
<path d="M40.2116 25.4216H39.2718V16.7345H40.2116V25.4216Z" fill="white"/>
<path d="M46.8301 22.7227H42.6871C42.7023 23.3759 42.8781 23.8802 43.2142 24.2355C43.5504 24.5907 44.0127 24.7684 44.601 24.7684C45.2619 24.7684 45.8693 24.5506 46.4232 24.1151V24.9976C45.9075 25.372 45.2256 25.5592 44.3775 25.5592C43.5485 25.5592 42.8972 25.2937 42.4235 24.7626C41.9498 24.2278 41.7129 23.4772 41.7129 22.5107C41.7129 21.5976 41.9708 20.8546 42.4865 20.2816C43.0061 19.7047 43.6497 19.4163 44.4176 19.4163C45.1855 19.4163 45.7795 19.6646 46.1997 20.1612C46.6199 20.6579 46.8301 21.3474 46.8301 22.2299V22.7227ZM45.8674 21.9262C45.8635 21.3837 45.7317 20.9616 45.472 20.6598C45.216 20.358 44.8588 20.2071 44.4004 20.2071C43.9573 20.2071 43.581 20.3656 43.2715 20.6827C42.9621 20.9998 42.7711 21.4143 42.6985 21.9262H45.8674Z" fill="white"/>
<path d="M56.5887 25.4216H55.6489V22.0522C55.6489 21.4028 55.5477 20.9329 55.3452 20.6426C55.1466 20.3522 54.8104 20.2071 54.3367 20.2071C53.9356 20.2071 53.5937 20.3904 53.311 20.7572C53.0321 21.1239 52.8927 21.5632 52.8927 22.0751V25.4216H51.9529V21.9376C51.9529 20.7839 51.5079 20.2071 50.6178 20.2071C50.2052 20.2071 49.8652 20.3809 49.5978 20.7285C49.3304 21.0724 49.1967 21.5212 49.1967 22.0751V25.4216H48.2569V19.5538H49.1967V20.4821H49.2196C49.636 19.7716 50.2434 19.4163 51.0418 19.4163C51.4429 19.4163 51.7925 19.529 52.0904 19.7544C52.3884 19.976 52.5928 20.2682 52.7036 20.6311C53.1391 19.8212 53.7885 19.4163 54.6519 19.4163C55.9431 19.4163 56.5887 20.2128 56.5887 21.8058V25.4216Z" fill="white"/>
<path d="M59.3278 24.5735H59.3049V25.4216H58.3651V16.7345H59.3049V20.5853H59.3278C59.79 19.806 60.4662 19.4163 61.3563 19.4163C62.1089 19.4163 62.6972 19.6799 63.1212 20.2071C63.5491 20.7304 63.763 21.4334 63.763 22.3158C63.763 23.2976 63.5243 24.0846 63.0467 24.6767C62.5692 25.265 61.916 25.5592 61.087 25.5592C60.3115 25.5592 59.7251 25.2306 59.3278 24.5735ZM59.3049 22.2069V23.0264C59.3049 23.5115 59.4615 23.9241 59.7747 24.2641C60.0918 24.6003 60.4929 24.7684 60.9781 24.7684C61.5473 24.7684 61.9924 24.5506 62.3133 24.1151C62.638 23.6796 62.8003 23.0741 62.8003 22.2986C62.8003 21.6454 62.6494 21.1335 62.3476 20.7629C62.0458 20.3924 61.6371 20.2071 61.1214 20.2071C60.5751 20.2071 60.1357 20.3981 59.8034 20.7801C59.471 21.1583 59.3049 21.6339 59.3049 22.2069Z" fill="white"/>
<path d="M69.3042 25.4216H68.3644V24.5048H68.3415C67.9327 25.2077 67.3311 25.5592 66.5365 25.5592C65.952 25.5592 65.4936 25.4044 65.1612 25.095C64.8327 24.7856 64.6684 24.3749 64.6684 23.863C64.6684 22.7666 65.314 22.1286 66.6052 21.9491L68.3644 21.7027C68.3644 20.7056 67.9614 20.2071 67.1553 20.2071C66.4486 20.2071 65.8106 20.4478 65.2414 20.9291V19.9664C65.8183 19.5997 66.483 19.4163 67.2356 19.4163C68.6146 19.4163 69.3042 20.146 69.3042 21.6053V25.4216ZM68.3644 22.4533L66.949 22.6482C66.5135 22.7093 66.185 22.8182 65.9634 22.9748C65.7419 23.1276 65.6311 23.4008 65.6311 23.7942C65.6311 24.0807 65.7323 24.3157 65.9348 24.4991C66.1411 24.6786 66.4142 24.7684 66.7542 24.7684C67.2203 24.7684 67.6042 24.606 67.906 24.2813C68.2116 23.9528 68.3644 23.5383 68.3644 23.0378V22.4533Z" fill="white"/>
<path d="M75.9456 25.4216H75.0058V22.0751C75.0058 20.8298 74.5512 20.2071 73.642 20.2071C73.1721 20.2071 72.7825 20.3847 72.473 20.74C72.1674 21.0915 72.0146 21.5365 72.0146 22.0751V25.4216H71.0748V19.5538H72.0146V20.528H72.0375C72.4807 19.7869 73.1225 19.4163 73.9629 19.4163C74.6047 19.4163 75.0956 19.6245 75.4356 20.0409C75.7756 20.4535 75.9456 21.0513 75.9456 21.8345V25.4216Z" fill="white"/>
<path d="M82.7302 24.9517C82.7302 27.1063 81.6988 28.1836 79.6359 28.1836C78.91 28.1836 78.2759 28.0461 77.7334 27.771V26.8313C78.3943 27.198 79.0246 27.3814 79.6244 27.3814C81.0684 27.3814 81.7905 26.6135 81.7905 25.0778V24.436H81.7675C81.3206 25.1848 80.6482 25.5592 79.7505 25.5592C79.0208 25.5592 78.4325 25.2994 77.9856 24.7798C77.5424 24.2565 77.3208 23.5555 77.3208 22.6768C77.3208 21.6798 77.5596 20.8871 78.0371 20.2988C78.5185 19.7105 79.1755 19.4163 80.0083 19.4163C80.7991 19.4163 81.3855 19.7334 81.7675 20.3675H81.7905V19.5538H82.7302V24.9517ZM81.7905 22.7685V21.9032C81.7905 21.4372 81.6319 21.038 81.3148 20.7056C81.0016 20.3733 80.61 20.2071 80.1401 20.2071C79.5595 20.2071 79.1049 20.4191 78.7763 20.8431C78.4478 21.2634 78.2835 21.8536 78.2835 22.6138C78.2835 23.267 78.4402 23.7904 78.7534 24.1839C79.0705 24.5735 79.4888 24.7684 80.0083 24.7684C80.5355 24.7684 80.9634 24.5812 81.2919 24.2068C81.6243 23.8324 81.7905 23.353 81.7905 22.7685Z" fill="white"/>
</svg>
