<svg width="20" height="20" viewBox="0 0 20 20" fill="none" xmlns="http://www.w3.org/2000/svg">
<path d="M15.625 9.37471C15.4592 9.37471 15.3003 9.44056 15.1831 9.55777C15.0658 9.67498 15 9.83395 15 9.99971V14.2435C14.9793 14.7945 14.7412 15.3149 14.3379 15.6909C13.9345 16.0669 13.3986 16.2678 12.8475 16.2497H5.9025C5.35137 16.2678 4.81552 16.0669 4.41214 15.6909C4.00876 15.3149 3.77069 14.7945 3.75 14.2435V7.00596C3.77069 6.45493 4.00876 5.93451 4.41214 5.55854C4.81552 5.18257 5.35137 4.98164 5.9025 4.99971H10C10.1658 4.99971 10.3247 4.93387 10.4419 4.81666C10.5592 4.69945 10.625 4.54047 10.625 4.37471C10.625 4.20895 10.5592 4.04998 10.4419 3.93277C10.3247 3.81556 10.1658 3.74971 10 3.74971H5.9025C5.01991 3.73177 4.16619 4.06442 3.52841 4.67478C2.89064 5.28514 2.52082 6.12343 2.5 7.00596L2.5 14.2435C2.52082 15.126 2.89064 15.9643 3.52841 16.5746C4.16619 17.185 5.01991 17.5177 5.9025 17.4997H12.8475C13.7301 17.5177 14.5838 17.185 15.2216 16.5746C15.8594 15.9643 16.2292 15.126 16.25 14.2435V9.99971C16.25 9.83395 16.1842 9.67498 16.0669 9.55777C15.9497 9.44056 15.7908 9.37471 15.625 9.37471Z" fill="#F58465"/>
<path d="M17.113 2.55063C17.038 2.5175 16.9569 2.50026 16.8749 2.5H12.4999C12.3341 2.5 12.1751 2.56585 12.0579 2.68306C11.9407 2.80027 11.8749 2.95924 11.8749 3.125C11.8749 3.29076 11.9407 3.44973 12.0579 3.56694C12.1751 3.68415 12.3341 3.75 12.4999 3.75H15.3661L8.93299 10.1831C8.8733 10.2408 8.82568 10.3097 8.79293 10.386C8.76017 10.4622 8.74293 10.5443 8.74221 10.6272C8.74149 10.7102 8.7573 10.7925 8.78873 10.8693C8.82016 10.9462 8.86656 11.0159 8.92525 11.0746C8.98393 11.1333 9.05371 11.1797 9.13052 11.2111C9.20733 11.2426 9.28963 11.2584 9.37262 11.2577C9.45561 11.2569 9.53762 11.2397 9.61387 11.2069C9.69012 11.1742 9.75909 11.1266 9.81674 11.0669L16.2499 4.63375V7.5C16.2499 7.66576 16.3157 7.82473 16.4329 7.94194C16.5501 8.05915 16.7091 8.125 16.8749 8.125C17.0406 8.125 17.1996 8.05915 17.3168 7.94194C17.434 7.82473 17.4999 7.66576 17.4999 7.5V3.125C17.497 3.00229 17.4591 2.88296 17.3905 2.78116C17.322 2.67936 17.2256 2.59935 17.113 2.55063Z" fill="#F58465"/>
</svg>
