<svg width="24" height="24" viewBox="0 0 24 24" fill="none" xmlns="http://www.w3.org/2000/svg">
<path fill-rule="evenodd" clip-rule="evenodd" d="M4.44001 4.22917L3.61459 5.05459C3.54707 5.12211 3.4555 5.16004 3.36002 5.16004C3.26453 5.16004 3.17296 5.12211 3.10545 5.05459C3.03793 4.98708 3 4.8955 3 4.80002C3 4.70454 3.03793 4.61297 3.10545 4.54545L4.54544 3.10545C4.57887 3.07202 4.61856 3.0455 4.66224 3.02741C4.70592 3.00931 4.75274 3 4.80001 3C4.84729 3 4.89411 3.00931 4.93779 3.02741C4.98147 3.0455 5.02116 3.07202 5.05458 3.10545L6.49458 4.54545C6.5621 4.61297 6.60003 4.70454 6.60003 4.80002C6.60003 4.8955 6.5621 4.98708 6.49458 5.05459C6.42706 5.12211 6.33549 5.16004 6.24001 5.16004C6.14453 5.16004 6.05296 5.12211 5.98544 5.05459L5.16001 4.22917V18.84H19.7708L18.9454 18.0146C18.912 17.9811 18.8855 17.9414 18.8674 17.8978C18.8493 17.8541 18.84 17.8073 18.84 17.76C18.84 17.7127 18.8493 17.6659 18.8674 17.6222C18.8855 17.5785 18.912 17.5388 18.9454 17.5054C18.9788 17.472 19.0185 17.4455 19.0622 17.4274C19.1059 17.4093 19.1527 17.4 19.2 17.4C19.2473 17.4 19.2941 17.4093 19.3377 17.4274C19.3814 17.4455 19.4211 17.472 19.4545 17.5054L20.8945 18.9454C20.928 18.9788 20.9545 19.0185 20.9726 19.0622C20.9907 19.1059 21 19.1527 21 19.2C21 19.2473 20.9907 19.2941 20.9726 19.3378C20.9545 19.3814 20.928 19.4211 20.8945 19.4546L19.4545 20.8946C19.4211 20.928 19.3814 20.9545 19.3377 20.9726C19.2941 20.9907 19.2473 21 19.2 21C19.1527 21 19.1059 20.9907 19.0622 20.9726C19.0185 20.9545 18.9788 20.928 18.9454 20.8946C18.912 20.8611 18.8855 20.8214 18.8674 20.7778C18.8493 20.7341 18.84 20.6873 18.84 20.64C18.84 20.5927 18.8493 20.5459 18.8674 20.5022C18.8855 20.4585 18.912 20.4188 18.9454 20.3854L19.7708 19.56H5.16001V20.64C5.16001 20.7355 5.12208 20.827 5.05457 20.8945C4.98706 20.9621 4.89549 21 4.80001 21C4.70454 21 4.61297 20.9621 4.54546 20.8945C4.47794 20.827 4.44001 20.7355 4.44001 20.64V19.56H3.36002C3.26454 19.56 3.17297 19.5221 3.10546 19.4545C3.03795 19.387 3.00002 19.2955 3.00002 19.2C3.00002 19.1045 3.03795 19.0129 3.10546 18.9454C3.17297 18.8779 3.26454 18.84 3.36002 18.84H4.44001V4.22917ZM17.7668 6.95322C17.7668 6.76226 17.6909 6.57913 17.5559 6.4441C17.4209 6.30908 17.2377 6.23322 17.0468 6.23322H6.95321C6.76226 6.23322 6.57912 6.30908 6.4441 6.4441C6.30907 6.57913 6.23321 6.76226 6.23321 6.95322V17.0468C6.23321 17.2377 6.30907 17.4209 6.4441 17.5559C6.57912 17.6909 6.76226 17.7668 6.95321 17.7668H17.0468C17.2377 17.7668 17.4209 17.6909 17.5559 17.5559C17.6909 17.4209 17.7668 17.2377 17.7668 17.0468V6.95322ZM17.0468 6.95322H6.95321V17.0468H17.0468V6.95322Z" fill="black"/>
</svg>
