<svg width="24" height="24" viewBox="0 0 24 24" fill="none" xmlns="http://www.w3.org/2000/svg">
<path d="M20.3337 8.52976V7.80058L21.2987 7.4789C21.3815 7.45112 21.4534 7.39804 21.5044 7.32716C21.5554 7.25629 21.5828 7.17119 21.5828 7.08389C21.5828 6.99659 21.5554 6.9115 21.5044 6.84062C21.4534 6.76975 21.3815 6.71667 21.2987 6.68889L20.0487 6.27221C19.9862 6.25138 19.9196 6.24569 19.8544 6.25559C19.7892 6.2655 19.7274 6.29073 19.6738 6.3292C19.6203 6.36768 19.5767 6.4183 19.5465 6.47692C19.5164 6.53553 19.5006 6.60047 19.5004 6.66639V8.27642C17.4237 7.72974 14.4944 7.5264 12.4169 7.5039V6.54972L13.3819 6.22804C13.4647 6.20026 13.5366 6.14718 13.5876 6.07631C13.6385 6.00543 13.666 5.92033 13.666 5.83303C13.666 5.74574 13.6385 5.66064 13.5876 5.58976C13.5366 5.51889 13.4647 5.46581 13.3819 5.43803L12.1319 5.02135C12.0693 5.0005 12.0026 4.99481 11.9374 5.00476C11.8721 5.01472 11.8102 5.04002 11.7567 5.07859C11.7031 5.11716 11.6595 5.16789 11.6294 5.22662C11.5993 5.28534 11.5836 5.35037 11.5835 5.41636V7.5039C9.50599 7.52724 6.57676 7.72891 4.50005 8.27642V7.79974L5.46507 7.47807C5.54783 7.45028 5.61978 7.39721 5.67074 7.32633C5.72171 7.25546 5.74913 7.17036 5.74913 7.08306C5.74913 6.99576 5.72171 6.91067 5.67074 6.83979C5.61978 6.76891 5.54783 6.71584 5.46507 6.68805L4.21505 6.27138C4.15244 6.25053 4.08578 6.24484 4.02054 6.25479C3.95531 6.26474 3.89337 6.29004 3.83983 6.32861C3.78629 6.36718 3.74267 6.41792 3.71257 6.47664C3.68247 6.53537 3.66675 6.6004 3.6667 6.66639V8.52892C2.65918 8.89393 2 9.37478 2 10.0006V17.5008C2 19.4767 8.5418 20 12.0002 20C15.4586 20 22.0004 19.4775 22.0004 17.4999V9.99979C22.0004 9.37394 21.3412 8.89393 20.3337 8.52976Z" fill="black"/>
<path d="M21.1672 10.0002C21.1672 10.371 19.7689 10.9702 17.1421 11.3402L19.3422 9.0835C19.483 9.121 19.6114 9.1585 19.7364 9.196C19.7672 9.21184 19.8014 9.2185 19.8364 9.22517C20.7139 9.50184 21.1672 9.78852 21.1672 10.0002ZM8.25861 11.5027L5.62272 8.86683C6.59274 8.67516 7.8061 8.51432 9.2528 8.42099L10.5412 11.6411C9.77882 11.6177 9.01735 11.5716 8.25778 11.5027H8.25861ZM11.4462 11.6602L10.1311 8.37349C11.3767 8.32082 12.624 8.32082 13.8696 8.37349L12.5545 11.6602C12.3704 11.6627 12.1904 11.6669 12.0004 11.6669C11.8104 11.6669 11.6303 11.6627 11.4462 11.6602ZM14.7479 8.42099C16.1996 8.51432 17.418 8.67599 18.3888 8.86933L15.8271 11.4952C15.1079 11.5636 14.3154 11.6136 13.4596 11.6411L14.7479 8.42099ZM4.16436 9.22601C4.19936 9.21934 4.23353 9.21267 4.26436 9.19684C4.3902 9.15934 4.51936 9.121 4.66187 9.0835L6.92692 11.3502C4.25519 10.9794 2.8335 10.3735 2.8335 10.0002C2.8335 9.78852 3.28684 9.50184 4.16436 9.22601Z" fill="white"/>
<path d="M10.3335 19.1337V17.5003C10.3335 17.0412 10.7068 16.667 11.1668 16.667H12.8335C13.2936 16.667 13.6669 17.0412 13.6669 17.5003V19.1337C13.1352 19.1537 12.5844 19.167 12.0002 19.167C11.416 19.167 10.8652 19.1537 10.3335 19.1337Z" fill="white"/>
<path d="M14.5004 19.0943V17.5001C14.5004 16.5809 13.7529 15.8334 12.8337 15.8334H11.167C10.2478 15.8334 9.5003 16.5809 9.5003 17.5001V19.0943C5.17105 18.8435 2.8335 17.9801 2.8335 17.5001V11.085C4.69854 12.175 9.28947 12.5 12.0004 12.5C14.7112 12.5 19.3022 12.175 21.1672 11.085V17.5001C21.1672 17.9801 18.8297 18.8435 14.5004 19.0943Z" fill="#EAEAEA"/>
<path opacity="0.1" d="M17.663 9.61351L18.3888 8.86933C17.418 8.67599 16.1996 8.51432 14.7471 8.42099L14.4204 9.2385C15.6463 9.31351 16.7488 9.44351 17.663 9.61351ZM12.0004 9.16684C12.527 9.16684 13.0404 9.17767 13.5404 9.19684L13.8696 8.37349C12.624 8.32082 11.3767 8.32082 10.1311 8.37349L10.4603 9.19684C10.9603 9.17767 11.4737 9.16684 12.0004 9.16684ZM9.5803 9.2385L9.2528 8.42099C7.80693 8.51432 6.59274 8.67516 5.62272 8.86683L6.3644 9.60851C7.42835 9.42138 8.50249 9.29782 9.58114 9.2385H9.5803ZM5.39688 9.81935L4.66187 9.0835C4.5202 9.121 4.3902 9.1585 4.26436 9.19684C4.23353 9.21267 4.19936 9.21934 4.16436 9.226C3.28684 9.50184 2.8335 9.78852 2.8335 10.0002C2.8335 10.1727 3.15017 10.396 3.74185 10.6219C3.93185 10.3219 4.5202 10.0469 5.39688 9.81935ZM19.8364 9.226C19.8014 9.21934 19.7672 9.21267 19.7364 9.19684C19.6114 9.15934 19.483 9.12184 19.3422 9.08433L18.6205 9.82435C19.488 10.051 20.0705 10.3244 20.2597 10.6219C20.8505 10.396 21.1672 10.1735 21.1672 10.0002C21.1672 9.78852 20.7139 9.50184 19.8364 9.226Z" fill="black"/>
<path d="M10.3335 19.1337V17.5003C10.3335 17.0412 10.7068 16.667 11.1668 16.667H12.8335C13.2936 16.667 13.6669 17.0412 13.6669 17.5003V19.1337C13.1352 19.1537 12.5844 19.167 12.0002 19.167C11.416 19.167 10.8652 19.1537 10.3335 19.1337Z" fill="white"/>
<path opacity="0.1" d="M12.8335 16.667H11.1668C10.7068 16.667 10.3335 17.0412 10.3335 17.5003V19.1337C10.4693 19.1387 10.611 19.142 10.7502 19.1462V18.3337C10.7502 17.8745 11.0768 17.5003 11.4794 17.5003H12.9377C13.3402 17.5003 13.6669 17.8745 13.6669 18.3337V17.5003C13.6669 17.0412 13.2936 16.667 12.8335 16.667Z" fill="black"/>
<path d="M9.5003 17.5001C9.5003 16.5809 10.2478 15.8334 11.167 15.8334H12.8337C13.7529 15.8334 14.5004 16.5809 14.5004 17.5001V19.0943C18.8297 18.8435 21.1672 17.9801 21.1672 17.5001V11.085C19.3022 12.175 14.7112 12.5 12.0004 12.5C9.3953 12.5 5.06188 12.1983 3.07183 11.2075L2.8335 11.25L9.5003 17.9168V17.5001Z" fill="white"/>
<path d="M20.3337 8.52976V7.80058L21.2987 7.4789C21.3815 7.45112 21.4534 7.39804 21.5044 7.32716C21.5554 7.25629 21.5828 7.17119 21.5828 7.08389C21.5828 6.99659 21.5554 6.9115 21.5044 6.84062C21.4534 6.76975 21.3815 6.71667 21.2987 6.68889L20.0487 6.27221C19.9862 6.25138 19.9196 6.24569 19.8544 6.25559C19.7892 6.2655 19.7274 6.29073 19.6738 6.3292C19.6203 6.36768 19.5767 6.4183 19.5465 6.47692C19.5164 6.53553 19.5006 6.60047 19.5004 6.66639V8.27642C17.4237 7.72974 14.4944 7.5264 12.4169 7.5039V6.54972L13.3819 6.22804C13.4647 6.20026 13.5366 6.14718 13.5876 6.07631C13.6385 6.00543 13.666 5.92033 13.666 5.83303C13.666 5.74574 13.6385 5.66064 13.5876 5.58976C13.5366 5.51889 13.4647 5.46581 13.3819 5.43803L12.1319 5.02135C12.0693 5.0005 12.0026 4.99481 11.9374 5.00476C11.8721 5.01472 11.8102 5.04002 11.7567 5.07859C11.7031 5.11716 11.6595 5.16789 11.6294 5.22662C11.5993 5.28534 11.5836 5.35037 11.5835 5.41636V7.5039C9.50599 7.52724 6.57676 7.72891 4.50005 8.27642V7.79974L5.46507 7.47807C5.54783 7.45028 5.61978 7.39721 5.67074 7.32633C5.72171 7.25546 5.74913 7.17036 5.74913 7.08306C5.74913 6.99576 5.72171 6.91067 5.67074 6.83979C5.61978 6.76891 5.54783 6.71584 5.46507 6.68805L4.21505 6.27138C4.15244 6.25053 4.08578 6.24484 4.02054 6.25479C3.95531 6.26474 3.89337 6.29004 3.83983 6.32861C3.78629 6.36718 3.74267 6.41792 3.71257 6.47664C3.68247 6.53537 3.66675 6.6004 3.6667 6.66639V8.52892C2.65918 8.89393 2 9.37478 2 10.0006V17.5008C2 19.4767 8.5418 20 12.0002 20C15.4586 20 22.0004 19.4775 22.0004 17.4999V9.99979C22.0004 9.37394 21.3412 8.89393 20.3337 8.52976Z" fill="url(#paint0_linear_1735_448)"/>
<defs>
<linearGradient id="paint0_linear_1735_448" x1="2.70835" y1="8.28559" x2="22.1588" y2="17.3558" gradientUnits="userSpaceOnUse">
<stop stop-color="white" stop-opacity="0.2"/>
<stop offset="1" stop-color="white" stop-opacity="0"/>
</linearGradient>
</defs>
</svg>
