<svg width="72" height="72" viewBox="0 0 72 72" fill="none" xmlns="http://www.w3.org/2000/svg">
<path d="M50.7979 37.426C44.0522 37.426 38.5958 42.8994 38.5958 49.6281C38.5958 56.3738 44.0522 61.8302 50.7979 61.8302C57.5436 61.8302 63 56.3738 63 49.6281C63 42.8994 57.5436 37.426 50.7979 37.426ZM50.7979 59.1319C45.5465 59.1319 41.2941 54.8795 41.2941 49.6281C41.2941 44.3767 45.5465 40.1243 50.7979 40.1243C56.0493 40.1243 60.3017 44.3767 60.3017 49.6281C60.3017 54.8795 56.0493 59.1319 50.7979 59.1319ZM55.87 14.2173C55.87 11.3397 53.5389 9 50.6528 9H14.2173C11.3397 9 9 11.3311 9 14.2173V17.8975H55.87V14.2173ZM39.5949 14.1063H25.2751C24.9165 14.1063 24.6262 13.8159 24.6262 13.4573C24.6262 13.0987 24.9165 12.7998 25.2751 12.7998H39.5949C39.9535 12.7998 40.2524 13.0901 40.2524 13.4573C40.2524 13.8159 39.9535 14.1063 39.5949 14.1063Z" fill="#6EAA44"/>
<path d="M56.1603 49.133H52.3605C52.2154 48.6719 51.8824 48.3047 51.4469 48.1169V42.4812C51.4469 42.1225 51.1565 41.8237 50.7894 41.8237C50.4307 41.8237 50.1404 42.114 50.1404 42.4812V48.1169C49.5512 48.373 49.1414 48.9537 49.1414 49.6368C49.1414 50.5504 49.8842 51.2933 50.7979 51.2933C51.4127 51.2933 51.9421 50.9518 52.2239 50.448H56.1603C56.519 50.448 56.8178 50.1577 56.8178 49.7905C56.8178 49.4233 56.519 49.133 56.1603 49.133ZM50.7979 35.7184C52.5911 35.7184 54.2989 36.0685 55.8786 36.6918V19.6055H9V47.9973C9 50.8749 11.3311 53.206 14.2173 53.206H37.3662C37.0588 52.0618 36.8795 50.8664 36.8795 49.6282C36.888 41.9603 43.1214 35.7184 50.7979 35.7184ZM46.1784 22.0305H52.2068V27.837H46.1784V22.0305ZM35.334 22.0305H41.3624V27.837H35.334V22.0305ZM19.6822 47.9034H13.6537V42.0969H19.6822V47.9034ZM19.6822 37.8702H13.6537V32.0637H19.6822V37.8702ZM19.6822 27.837H13.6537V22.0305H19.6822V27.837ZM30.5266 47.9034H24.4981V42.0969H30.5266V47.9034ZM30.5266 37.8702H24.4981V32.0637H30.5266V37.8702ZM30.5266 27.837H24.4981V22.0305H30.5266V27.837ZM35.334 32.0637H41.3624V37.8702H35.334V32.0637Z" fill="#F58465"/>
</svg>
