<svg width="138" height="28" viewBox="0 0 138 28" fill="none" xmlns="http://www.w3.org/2000/svg">
<path d="M1.21178 8.28668V0.518428H3.35698C6.09447 0.518428 7.46321 1.78063 7.46321 4.30505C7.46321 5.50405 7.08221 6.46831 6.32019 7.19783C5.56178 7.92373 4.54515 8.28668 3.27031 8.28668H1.21178ZM2.12186 1.34184V7.46327H3.28114C4.29958 7.46327 5.09229 7.1906 5.65929 6.64527C6.22629 6.09994 6.50979 5.32709 6.50979 4.32671C6.50979 2.3368 5.45163 1.34184 3.33531 1.34184H2.12186Z" fill="white"/>
<path d="M9.32673 1.33101C9.16782 1.33101 9.03239 1.27684 8.92044 1.16849C8.80848 1.06015 8.75251 0.922912 8.75251 0.756785C8.75251 0.590658 8.80848 0.453422 8.92044 0.345078C9.03239 0.233123 9.16782 0.177145 9.32673 0.177145C9.48924 0.177145 9.62648 0.233123 9.73843 0.345078C9.854 0.453422 9.91179 0.590658 9.91179 0.756785C9.91179 0.915689 9.854 1.05112 9.73843 1.16307C9.62648 1.27503 9.48924 1.33101 9.32673 1.33101ZM9.7601 8.28668H8.87169V2.73948H9.7601V8.28668Z" fill="white"/>
<path d="M16.1632 8.28668H15.2748V5.12304C15.2748 3.9457 14.845 3.35704 13.9855 3.35704C13.5413 3.35704 13.1729 3.52497 12.8804 3.86084C12.5915 4.19309 12.447 4.61383 12.447 5.12304V8.28668H11.5586V2.73948H12.447V3.6604H12.4687C12.8876 2.95978 13.4944 2.60946 14.2889 2.60946C14.8956 2.60946 15.3597 2.80629 15.6811 3.19994C16.0025 3.58998 16.1632 4.15517 16.1632 4.89552V8.28668Z" fill="white"/>
<path d="M21.8134 8.28668H20.9249V7.41993H20.9033C20.5168 8.08444 19.948 8.41669 19.1969 8.41669C18.6443 8.41669 18.2109 8.27043 17.8967 7.9779C17.5861 7.68537 17.4308 7.29714 17.4308 6.8132C17.4308 5.77672 18.0412 5.1736 19.2619 5.00386L20.9249 4.77092C20.9249 3.82833 20.5439 3.35704 19.7819 3.35704C19.1138 3.35704 18.5107 3.58456 17.9726 4.0396V3.12951C18.5179 2.78281 19.1463 2.60946 19.8577 2.60946C21.1615 2.60946 21.8134 3.29925 21.8134 4.67883V8.28668ZM20.9249 5.48058L19.5869 5.66476C19.1752 5.72254 18.8646 5.82547 18.6551 5.97354C18.4457 6.118 18.3409 6.37622 18.3409 6.7482C18.3409 7.01906 18.4366 7.24116 18.628 7.41451C18.8231 7.58425 19.0813 7.66912 19.4027 7.66912C19.8433 7.66912 20.2063 7.51563 20.4916 7.20866C20.7805 6.89807 20.9249 6.50623 20.9249 6.03313V5.48058Z" fill="white"/>
<path d="M23.1514 8.08624V7.13282C23.6353 7.49035 24.168 7.66912 24.7495 7.66912C25.5295 7.66912 25.9196 7.4091 25.9196 6.88905C25.9196 6.74098 25.8853 6.61638 25.8167 6.51526C25.7517 6.41053 25.6614 6.31843 25.5458 6.23898C25.4338 6.15953 25.3002 6.08911 25.1449 6.02771C24.9932 5.96271 24.8289 5.89589 24.652 5.82728C24.4064 5.72977 24.1897 5.63226 24.0019 5.53475C23.8177 5.43363 23.6624 5.32167 23.536 5.19888C23.4132 5.07248 23.3193 4.92983 23.2543 4.77092C23.1929 4.61202 23.1622 4.42603 23.1622 4.21295C23.1622 3.95293 23.2218 3.7236 23.341 3.52497C23.4602 3.32273 23.6191 3.15479 23.8177 3.02117C24.0163 2.88394 24.2421 2.78101 24.4949 2.71239C24.7513 2.64377 25.0149 2.60946 25.2858 2.60946C25.7661 2.60946 26.1959 2.69253 26.5751 2.85866V3.75791C26.167 3.49066 25.6975 3.35704 25.1666 3.35704C25.0005 3.35704 24.8506 3.3769 24.717 3.41663C24.5833 3.45274 24.4678 3.50511 24.3703 3.57372C24.2764 3.64234 24.2023 3.72541 24.1482 3.82292C24.0976 3.91681 24.0723 4.02155 24.0723 4.13711C24.0723 4.28157 24.0976 4.40255 24.1482 4.50006C24.2023 4.59757 24.28 4.68425 24.3811 4.76009C24.4822 4.83593 24.605 4.90455 24.7495 4.96594C24.8939 5.02734 25.0583 5.09415 25.2424 5.16638C25.488 5.26028 25.7083 5.35779 25.9033 5.45891C26.0984 5.55642 26.2645 5.66837 26.4017 5.79477C26.539 5.91756 26.6437 6.06022 26.7159 6.22273C26.7918 6.38525 26.8297 6.57846 26.8297 6.80237C26.8297 7.07684 26.7683 7.3152 26.6455 7.51744C26.5263 7.71968 26.3656 7.88761 26.1634 8.02124C25.9611 8.15486 25.7282 8.25418 25.4645 8.31918C25.2009 8.38419 24.9246 8.41669 24.6357 8.41669C24.0651 8.41669 23.5703 8.30654 23.1514 8.08624Z" fill="white"/>
<path d="M36.7702 8.28668H35.5026L32.5015 4.733C32.3895 4.59938 32.3209 4.50909 32.2956 4.46214H32.274V8.28668H31.3639V0.518428H32.274V4.16962H32.2956C32.3462 4.09016 32.4148 4.00168 32.5015 3.90417L35.4051 0.518428H36.5373L33.2057 4.24546L36.7702 8.28668Z" fill="white"/>
<path d="M39.8472 8.41669C39.0274 8.41669 38.3719 8.15847 37.8807 7.64204C37.3932 7.12198 37.1494 6.434 37.1494 5.57809C37.1494 4.64633 37.404 3.91862 37.9132 3.39496C38.4225 2.8713 39.1104 2.60946 39.9772 2.60946C40.8042 2.60946 41.4489 2.86407 41.9111 3.37329C42.377 3.8825 42.61 4.58854 42.61 5.49141C42.61 6.37622 42.359 7.08587 41.857 7.62037C41.3586 8.15125 40.6887 8.41669 39.8472 8.41669ZM39.9122 3.35704C39.3416 3.35704 38.8901 3.55206 38.5579 3.94209C38.2256 4.32852 38.0595 4.86302 38.0595 5.54558C38.0595 6.20287 38.2274 6.72111 38.5633 7.10032C38.8992 7.47952 39.3488 7.66912 39.9122 7.66912C40.4864 7.66912 40.927 7.48313 41.234 7.11115C41.5446 6.73917 41.6999 6.21009 41.6999 5.52391C41.6999 4.83051 41.5446 4.29602 41.234 3.92042C40.927 3.54483 40.4864 3.35704 39.9122 3.35704Z" fill="white"/>
<path d="M51.9059 8.28668H51.0174V5.10137C51.0174 4.48742 50.9217 4.04321 50.7303 3.76874C50.5425 3.49427 50.2247 3.35704 49.7769 3.35704C49.3977 3.35704 49.0745 3.53039 48.8072 3.87709C48.5436 4.22379 48.4118 4.63911 48.4118 5.12304V8.28668H47.5233V4.99303C47.5233 3.90237 47.1026 3.35704 46.2611 3.35704C45.8711 3.35704 45.5497 3.52136 45.2969 3.85C45.0441 4.17503 44.9177 4.59938 44.9177 5.12304V8.28668H44.0293V2.73948H44.9177V3.61706H44.9393C45.333 2.94533 45.9072 2.60946 46.662 2.60946C47.0412 2.60946 47.3717 2.716 47.6534 2.92908C47.9351 3.13854 48.1283 3.41482 48.233 3.75791C48.6447 2.99228 49.2587 2.60946 50.0748 2.60946C51.2955 2.60946 51.9059 3.36245 51.9059 4.86843V8.28668Z" fill="white"/>
<path d="M58.0706 8.28668H57.1822V7.4091H57.1605C56.7922 8.08083 56.2215 8.41669 55.4487 8.41669C54.1269 8.41669 53.466 7.6294 53.466 6.0548V2.73948H54.349V5.91395C54.349 7.08406 54.7968 7.66912 55.6925 7.66912C56.1258 7.66912 56.4816 7.51022 56.7597 7.19241C57.0414 6.87099 57.1822 6.45206 57.1822 5.93562V2.73948H58.0706V8.28668Z" fill="white"/>
<path d="M64.4737 8.28668H63.5853V5.12304C63.5853 3.9457 63.1556 3.35704 62.296 3.35704C61.8518 3.35704 61.4834 3.52497 61.1909 3.86084C60.902 4.19309 60.7575 4.61383 60.7575 5.12304V8.28668H59.8691V2.73948H60.7575V3.6604H60.7792C61.1981 2.95978 61.8049 2.60946 62.5994 2.60946C63.2061 2.60946 63.6702 2.80629 63.9916 3.19994C64.313 3.58998 64.4737 4.15517 64.4737 4.89552V8.28668Z" fill="white"/>
<path d="M66.6081 1.33101C66.4492 1.33101 66.3138 1.27684 66.2018 1.16849C66.0899 1.06015 66.0339 0.922912 66.0339 0.756785C66.0339 0.590658 66.0899 0.453422 66.2018 0.345078C66.3138 0.233123 66.4492 0.177145 66.6081 0.177145C66.7706 0.177145 66.9079 0.233123 67.0198 0.345078C67.1354 0.453422 67.1932 0.590658 67.1932 0.756785C67.1932 0.915689 67.1354 1.05112 67.0198 1.16307C66.9079 1.27503 66.7706 1.33101 66.6081 1.33101ZM67.0415 8.28668H66.1531V2.73948H67.0415V8.28668Z" fill="white"/>
<path d="M73.4446 8.28668H72.1987L69.7501 5.62142H69.7284V8.28668H68.84V0.0742188H69.7284V5.28014H69.7501L72.0795 2.73948H73.2442L70.671 5.41557L73.4446 8.28668Z" fill="white"/>
<path d="M78.3255 8.28668H77.4371V7.41993H77.4154C77.029 8.08444 76.4602 8.41669 75.709 8.41669C75.1564 8.41669 74.7231 8.27043 74.4089 7.9779C74.0983 7.68537 73.943 7.29714 73.943 6.8132C73.943 5.77672 74.5533 5.1736 75.774 5.00386L77.4371 4.77092C77.4371 3.82833 77.0561 3.35704 76.2941 3.35704C75.6259 3.35704 75.0228 3.58456 74.4847 4.0396V3.12951C75.03 2.78281 75.6584 2.60946 76.3699 2.60946C77.6736 2.60946 78.3255 3.29925 78.3255 4.67883V8.28668ZM77.4371 5.48058L76.099 5.66476C75.6873 5.72254 75.3767 5.82547 75.1673 5.97354C74.9578 6.118 74.8531 6.37622 74.8531 6.7482C74.8531 7.01906 74.9488 7.24116 75.1402 7.41451C75.3352 7.58425 75.5934 7.66912 75.9148 7.66912C76.3554 7.66912 76.7184 7.51563 77.0037 7.20866C77.2926 6.89807 77.4371 6.50623 77.4371 6.03313V5.48058Z" fill="white"/>
<path d="M79.6635 8.08624V7.13282C80.1475 7.49035 80.6802 7.66912 81.2616 7.66912C82.0417 7.66912 82.4317 7.4091 82.4317 6.88905C82.4317 6.74098 82.3974 6.61638 82.3288 6.51526C82.2638 6.41053 82.1735 6.31843 82.0579 6.23898C81.946 6.15953 81.8124 6.08911 81.6571 6.02771C81.5054 5.96271 81.3411 5.89589 81.1641 5.82728C80.9185 5.72977 80.7018 5.63226 80.514 5.53475C80.3299 5.43363 80.1746 5.32167 80.0482 5.19888C79.9254 5.07248 79.8315 4.92983 79.7665 4.77092C79.7051 4.61202 79.6744 4.42603 79.6744 4.21295C79.6744 3.95293 79.734 3.7236 79.8531 3.52497C79.9723 3.32273 80.1312 3.15479 80.3299 3.02117C80.5285 2.88394 80.7542 2.78101 81.007 2.71239C81.2634 2.64377 81.5271 2.60946 81.7979 2.60946C82.2782 2.60946 82.708 2.69253 83.0872 2.85866V3.75791C82.6791 3.49066 82.2096 3.35704 81.6787 3.35704C81.5126 3.35704 81.3627 3.3769 81.2291 3.41663C81.0955 3.45274 80.9799 3.50511 80.8824 3.57372C80.7885 3.64234 80.7145 3.72541 80.6603 3.82292C80.6097 3.91681 80.5845 4.02155 80.5845 4.13711C80.5845 4.28157 80.6097 4.40255 80.6603 4.50006C80.7145 4.59757 80.7921 4.68425 80.8932 4.76009C80.9944 4.83593 81.1172 4.90455 81.2616 4.96594C81.4061 5.02734 81.5704 5.09415 81.7546 5.16638C82.0002 5.26028 82.2205 5.35779 82.4155 5.45891C82.6105 5.55642 82.7766 5.66837 82.9139 5.79477C83.0511 5.91756 83.1558 6.06022 83.2281 6.22273C83.3039 6.38525 83.3418 6.57846 83.3418 6.80237C83.3418 7.07684 83.2804 7.3152 83.1576 7.51744C83.0385 7.71968 82.8777 7.88761 82.6755 8.02124C82.4733 8.15486 82.2403 8.25418 81.9767 8.31918C81.713 8.38419 81.4368 8.41669 81.1479 8.41669C80.5772 8.41669 80.0825 8.30654 79.6635 8.08624Z" fill="white"/>
<path d="M85.1674 1.33101C85.0085 1.33101 84.8731 1.27684 84.7611 1.16849C84.6492 1.06015 84.5932 0.922912 84.5932 0.756785C84.5932 0.590658 84.6492 0.453422 84.7611 0.345078C84.8731 0.233123 85.0085 0.177145 85.1674 0.177145C85.3299 0.177145 85.4672 0.233123 85.5791 0.345078C85.6947 0.453422 85.7525 0.590658 85.7525 0.756785C85.7525 0.915689 85.6947 1.05112 85.5791 1.16307C85.4672 1.27503 85.3299 1.33101 85.1674 1.33101ZM85.6008 8.28668H84.7124V2.73948H85.6008V8.28668Z" fill="white"/>
<path d="M95.1784 8.28668H94.29V7.34409H94.2683C93.8566 8.05916 93.221 8.41669 92.3614 8.41669C91.6644 8.41669 91.1065 8.16931 90.6875 7.67454C90.2722 7.17616 90.0646 6.49901 90.0646 5.64309C90.0646 4.72578 90.2957 3.99085 90.7579 3.43829C91.2202 2.88574 91.836 2.60946 92.6052 2.60946C93.3672 2.60946 93.9216 2.90922 94.2683 3.50872H94.29V0.0742188H95.1784V8.28668ZM94.29 5.77852V4.96053C94.29 4.5127 94.1419 4.1335 93.8457 3.82292C93.5496 3.51233 93.174 3.35704 92.719 3.35704C92.1773 3.35704 91.7511 3.55567 91.4405 3.95293C91.1299 4.35019 90.9746 4.89913 90.9746 5.59975C90.9746 6.23898 91.1227 6.74459 91.4188 7.11657C91.7186 7.48494 92.1195 7.66912 92.6215 7.66912C93.1162 7.66912 93.5171 7.49035 93.8241 7.13282C94.1347 6.77528 94.29 6.32385 94.29 5.77852Z" fill="white"/>
<path d="M100.948 8.28668H100.059V7.41993H100.038C99.6512 8.08444 99.0824 8.41669 98.3312 8.41669C97.7786 8.41669 97.3453 8.27043 97.0311 7.9779C96.7205 7.68537 96.5652 7.29714 96.5652 6.8132C96.5652 5.77672 97.1755 5.1736 98.3962 5.00386L100.059 4.77092C100.059 3.82833 99.6783 3.35704 98.9162 3.35704C98.2481 3.35704 97.645 3.58456 97.1069 4.0396V3.12951C97.6522 2.78281 98.2806 2.60946 98.9921 2.60946C100.296 2.60946 100.948 3.29925 100.948 4.67883V8.28668ZM100.059 5.48058L98.7212 5.66476C98.3095 5.72254 97.9989 5.82547 97.7895 5.97354C97.58 6.118 97.4753 6.37622 97.4753 6.7482C97.4753 7.01906 97.571 7.24116 97.7624 7.41451C97.9574 7.58425 98.2156 7.66912 98.537 7.66912C98.9776 7.66912 99.3406 7.51563 99.6259 7.20866C99.9148 6.89807 100.059 6.50623 100.059 6.03313V5.48058Z" fill="white"/>
<path d="M107.226 8.28668H106.338V5.12304C106.338 3.9457 105.908 3.35704 105.049 3.35704C104.604 3.35704 104.236 3.52497 103.943 3.86084C103.654 4.19309 103.51 4.61383 103.51 5.12304V8.28668H102.622V2.73948H103.51V3.6604H103.532C103.951 2.95978 104.557 2.60946 105.352 2.60946C105.959 2.60946 106.423 2.80629 106.744 3.19994C107.065 3.58998 107.226 4.15517 107.226 4.89552V8.28668Z" fill="white"/>
<path d="M2.88027 17.16V17.9401H2.12186V24.1482H2.88027V24.9283H0.453369V24.1482H1.21178V17.9401H0.453369V17.16H2.88027Z" fill="white"/>
<path d="M8.655 24.9283H7.76658V21.7647C7.76658 20.5873 7.33681 19.9986 6.47729 19.9986C6.03308 19.9986 5.66471 20.1666 5.37218 20.5024C5.08326 20.8347 4.9388 21.2554 4.9388 21.7647V24.9283H4.05038V19.3811H4.9388V20.302H4.96047C5.3794 19.6014 5.98613 19.2511 6.78065 19.2511C7.38737 19.2511 7.85145 19.4479 8.17287 19.8416C8.49429 20.2316 8.655 20.7968 8.655 21.5371V24.9283Z" fill="white"/>
<path d="M13.0754 17.4959C12.9021 17.3984 12.7053 17.3496 12.485 17.3496C11.8638 17.3496 11.5532 17.7415 11.5532 18.5252V19.3811H12.8533V20.1395H11.5532V24.9283H10.6702V20.1395H9.72218V19.3811H10.6702V18.4818C10.6702 17.9004 10.8381 17.4417 11.174 17.1059C11.5099 16.7664 11.9288 16.5967 12.4308 16.5967C12.7016 16.5967 12.9165 16.6292 13.0754 16.6942V17.4959Z" fill="white"/>
<path d="M16.1307 25.0583C15.3109 25.0583 14.6554 24.8001 14.1643 24.2836C13.6767 23.7636 13.433 23.0756 13.433 22.2197C13.433 21.2879 13.6876 20.5602 14.1968 20.0366C14.706 19.5129 15.394 19.2511 16.2607 19.2511C17.0878 19.2511 17.7324 19.5057 18.1947 20.0149C18.6605 20.5241 18.8935 21.2302 18.8935 22.133C18.8935 23.0178 18.6425 23.7275 18.1405 24.262C17.6421 24.7929 16.9722 25.0583 16.1307 25.0583ZM16.1957 19.9986C15.6251 19.9986 15.1737 20.1937 14.8414 20.5837C14.5092 20.9701 14.343 21.5046 14.343 22.1872C14.343 22.8445 14.511 23.3627 14.8468 23.7419C15.1827 24.1211 15.6323 24.3107 16.1957 24.3107C16.7699 24.3107 17.2105 24.1247 17.5175 23.7528C17.8281 23.3808 17.9834 22.8517 17.9834 22.1655C17.9834 21.4721 17.8281 20.9376 17.5175 20.562C17.2105 20.1864 16.7699 19.9986 16.1957 19.9986Z" fill="white"/>
<path d="M23.2056 20.2803C23.0503 20.1612 22.8264 20.1016 22.5338 20.1016C22.1546 20.1016 21.8368 20.2803 21.5804 20.6379C21.3276 20.9954 21.2012 21.483 21.2012 22.1005V24.9283H20.3128V19.3811H21.2012V20.5241H21.2229C21.3493 20.1341 21.5425 19.8307 21.8025 19.614C22.0625 19.3937 22.3533 19.2836 22.6747 19.2836C22.9058 19.2836 23.0828 19.3089 23.2056 19.3594V20.2803Z" fill="white"/>
<path d="M32.0248 24.9283H31.1363V21.743C31.1363 21.129 31.0406 20.6848 30.8492 20.4104C30.6614 20.1359 30.3436 19.9986 29.8958 19.9986C29.5166 19.9986 29.1934 20.172 28.9261 20.5187C28.6625 20.8654 28.5307 21.2807 28.5307 21.7647V24.9283H27.6423V21.6346C27.6423 20.544 27.2215 19.9986 26.38 19.9986C25.99 19.9986 25.6686 20.163 25.4158 20.4916C25.163 20.8166 25.0366 21.241 25.0366 21.7647V24.9283H24.1482V19.3811H25.0366V20.2587H25.0583C25.4519 19.5869 26.0261 19.2511 26.7809 19.2511C27.1601 19.2511 27.4906 19.3576 27.7723 19.5707C28.054 19.7802 28.2472 20.0564 28.3519 20.3995C28.7636 19.6339 29.3776 19.2511 30.1938 19.2511C31.4144 19.2511 32.0248 20.0041 32.0248 21.51V24.9283Z" fill="white"/>
<path d="M37.6749 24.9283H36.7865V24.0615H36.7648C36.3784 24.7261 35.8096 25.0583 35.0584 25.0583C34.5058 25.0583 34.0725 24.912 33.7583 24.6195C33.4477 24.327 33.2924 23.9388 33.2924 23.4548C33.2924 22.4183 33.9027 21.8152 35.1234 21.6455L36.7865 21.4125C36.7865 20.4699 36.4055 19.9986 35.6434 19.9986C34.9753 19.9986 34.3722 20.2262 33.8341 20.6812V19.7711C34.3794 19.4244 35.0078 19.2511 35.7193 19.2511C37.023 19.2511 37.6749 19.9409 37.6749 21.3204V24.9283ZM36.7865 22.1222L35.4484 22.3064C35.0367 22.3642 34.7261 22.4671 34.5167 22.6152C34.3072 22.7596 34.2025 23.0178 34.2025 23.3898C34.2025 23.6607 34.2982 23.8828 34.4896 24.0561C34.6846 24.2259 34.9428 24.3107 35.2642 24.3107C35.7048 24.3107 36.0678 24.1572 36.3531 23.8503C36.642 23.5397 36.7865 23.1478 36.7865 22.6747V22.1222Z" fill="white"/>
<path d="M41.922 24.8741C41.7125 24.9897 41.4362 25.0475 41.0931 25.0475C40.1217 25.0475 39.6359 24.5058 39.6359 23.4223V20.1395H38.6825V19.3811H39.6359V18.0268L40.5243 17.7397V19.3811H41.922V20.1395H40.5243V23.2652C40.5243 23.6372 40.5875 23.9026 40.7139 24.0615C40.8403 24.2204 41.0498 24.2999 41.3423 24.2999C41.5662 24.2999 41.7595 24.2385 41.922 24.1157V24.8741Z" fill="white"/>
<path d="M43.5634 17.9726C43.4045 17.9726 43.269 17.9184 43.1571 17.8101C43.0451 17.7018 42.9892 17.5645 42.9892 17.3984C42.9892 17.2323 43.0451 17.095 43.1571 16.9867C43.269 16.8747 43.4045 16.8188 43.5634 16.8188C43.7259 16.8188 43.8631 16.8747 43.9751 16.9867C44.0907 17.095 44.1484 17.2323 44.1484 17.3984C44.1484 17.5573 44.0907 17.6927 43.9751 17.8047C43.8631 17.9166 43.7259 17.9726 43.5634 17.9726ZM43.9968 24.9283H43.1083V19.3811H43.9968V24.9283Z" fill="white"/>
<path d="M50.3999 24.9283H49.1539L46.7053 22.263H46.6837V24.9283H45.7953V16.7158H46.6837V21.9218H46.7053L49.0347 19.3811H50.1994L47.6263 22.0572L50.3999 24.9283Z" fill="white"/>
<path d="M55.2808 24.9283H54.3923V24.0615H54.3707C53.9842 24.7261 53.4154 25.0583 52.6643 25.0583C52.1117 25.0583 51.6783 24.912 51.3641 24.6195C51.0535 24.327 50.8983 23.9388 50.8983 23.4548C50.8983 22.4183 51.5086 21.8152 52.7293 21.6455L54.3923 21.4125C54.3923 20.4699 54.0113 19.9986 53.2493 19.9986C52.5812 19.9986 51.9781 20.2262 51.44 20.6812V19.7711C51.9853 19.4244 52.6137 19.2511 53.3252 19.2511C54.6289 19.2511 55.2808 19.9409 55.2808 21.3204V24.9283ZM54.3923 22.1222L53.0543 22.3064C52.6426 22.3642 52.332 22.4671 52.1225 22.6152C51.9131 22.7596 51.8083 23.0178 51.8083 23.3898C51.8083 23.6607 51.904 23.8828 52.0955 24.0561C52.2905 24.2259 52.5487 24.3107 52.8701 24.3107C53.3107 24.3107 53.6737 24.1572 53.959 23.8503C54.2479 23.5397 54.3923 23.1478 54.3923 22.6747V22.1222Z" fill="white"/>
<path d="M65.5247 24.9283H64.257L61.2559 21.3746C61.144 21.241 61.0754 21.1507 61.0501 21.1038H61.0284V24.9283H60.1183V17.16H61.0284V20.8112H61.0501C61.1006 20.7318 61.1693 20.6433 61.2559 20.5458L64.1595 17.16H65.2917L61.9602 20.8871L65.5247 24.9283Z" fill="white"/>
<path d="M68.6016 25.0583C67.7818 25.0583 67.1264 24.8001 66.6352 24.2836C66.1477 23.7636 65.9039 23.0756 65.9039 22.2197C65.9039 21.2879 66.1585 20.5602 66.6677 20.0366C67.1769 19.5129 67.8649 19.2511 68.7317 19.2511C69.5587 19.2511 70.2033 19.5057 70.6656 20.0149C71.1315 20.5241 71.3644 21.2302 71.3644 22.133C71.3644 23.0178 71.1134 23.7275 70.6114 24.262C70.113 24.7929 69.4431 25.0583 68.6016 25.0583ZM68.6666 19.9986C68.096 19.9986 67.6446 20.1937 67.3123 20.5837C66.9801 20.9701 66.814 21.5046 66.814 22.1872C66.814 22.8445 66.9819 23.3627 67.3178 23.7419C67.6536 24.1211 68.1033 24.3107 68.6666 24.3107C69.2409 24.3107 69.6815 24.1247 69.9884 23.7528C70.299 23.3808 70.4543 22.8517 70.4543 22.1655C70.4543 21.4721 70.299 20.9376 69.9884 20.562C69.6815 20.1864 69.2409 19.9986 68.6666 19.9986Z" fill="white"/>
<path d="M75.3569 24.8741C75.1474 24.9897 74.8711 25.0475 74.528 25.0475C73.5566 25.0475 73.0708 24.5058 73.0708 23.4223V20.1395H72.1174V19.3811H73.0708V18.0268L73.9592 17.7397V19.3811H75.3569V20.1395H73.9592V23.2652C73.9592 23.6372 74.0224 23.9026 74.1488 24.0615C74.2752 24.2204 74.4847 24.2999 74.7772 24.2999C75.0011 24.2999 75.1944 24.2385 75.3569 24.1157V24.8741Z" fill="white"/>
<path d="M80.514 24.9283H79.6256V24.0615H79.604C79.2175 24.7261 78.6487 25.0583 77.8975 25.0583C77.345 25.0583 76.9116 24.912 76.5974 24.6195C76.2868 24.327 76.1315 23.9388 76.1315 23.4548C76.1315 22.4183 76.7419 21.8152 77.9625 21.6455L79.6256 21.4125C79.6256 20.4699 79.2446 19.9986 78.4826 19.9986C77.8145 19.9986 77.2114 20.2262 76.6733 20.6812V19.7711C77.2186 19.4244 77.847 19.2511 78.5584 19.2511C79.8622 19.2511 80.514 19.9409 80.514 21.3204V24.9283ZM79.6256 22.1222L78.2876 22.3064C77.8759 22.3642 77.5653 22.4671 77.3558 22.6152C77.1464 22.7596 77.0416 23.0178 77.0416 23.3898C77.0416 23.6607 77.1373 23.8828 77.3287 24.0561C77.5238 24.2259 77.782 24.3107 78.1034 24.3107C78.544 24.3107 78.9069 24.1572 79.1922 23.8503C79.4812 23.5397 79.6256 23.1478 79.6256 22.6747V22.1222Z" fill="white"/>
<path d="M86.2617 21.9922V24.9283H85.3516V17.16H87.486C88.3166 17.16 88.9594 17.3623 89.4145 17.7668C89.8731 18.1712 90.1025 18.7419 90.1025 19.4786C90.1025 20.2153 89.8479 20.8185 89.3386 21.2879C88.833 21.7574 88.1487 21.9922 87.2855 21.9922H86.2617ZM86.2617 17.9835V21.1688H87.2151C87.8435 21.1688 88.322 21.0261 88.6507 20.7408C88.9829 20.4519 89.149 20.0456 89.149 19.5219C89.149 18.4963 88.5423 17.9835 87.3289 17.9835H86.2617Z" fill="white"/>
<path d="M95.0646 24.9283H94.1762V24.0615H94.1545C93.7681 24.7261 93.1993 25.0583 92.4481 25.0583C91.8956 25.0583 91.4622 24.912 91.148 24.6195C90.8374 24.327 90.6821 23.9388 90.6821 23.4548C90.6821 22.4183 91.2924 21.8152 92.5131 21.6455L94.1762 21.4125C94.1762 20.4699 93.7952 19.9986 93.0332 19.9986C92.3651 19.9986 91.7619 20.2262 91.2238 20.6812V19.7711C91.7692 19.4244 92.3976 19.2511 93.109 19.2511C94.4128 19.2511 95.0646 19.9409 95.0646 21.3204V24.9283ZM94.1762 22.1222L92.8382 22.3064C92.4264 22.3642 92.1159 22.4671 91.9064 22.6152C91.6969 22.7596 91.5922 23.0178 91.5922 23.3898C91.5922 23.6607 91.6879 23.8828 91.8793 24.0561C92.0743 24.2259 92.3326 24.3107 92.654 24.3107C93.0946 24.3107 93.4575 24.1572 93.7428 23.8503C94.0317 23.5397 94.1762 23.1478 94.1762 22.6747V22.1222Z" fill="white"/>
<path d="M97.6269 24.9283H96.7385V16.7158H97.6269V24.9283Z" fill="white"/>
<path d="M103.884 22.3768H99.9672C99.9816 22.9944 100.148 23.4711 100.466 23.8069C100.783 24.1428 101.22 24.3107 101.777 24.3107C102.401 24.3107 102.976 24.1049 103.499 23.6932V24.5274C103.012 24.8813 102.367 25.0583 101.565 25.0583C100.782 25.0583 100.166 24.8073 99.718 24.3053C99.2702 23.7997 99.0462 23.0901 99.0462 22.1764C99.0462 21.3132 99.29 20.6108 99.7776 20.0691C100.269 19.5237 100.877 19.2511 101.603 19.2511C102.329 19.2511 102.891 19.4858 103.288 19.9553C103.685 20.4248 103.884 21.0767 103.884 21.9109V22.3768ZM102.974 21.6238C102.97 21.111 102.846 20.7119 102.6 20.4266C102.358 20.1413 102.02 19.9986 101.587 19.9986C101.168 19.9986 100.812 20.1485 100.52 20.4483C100.227 20.748 100.047 21.1399 99.978 21.6238H102.974Z" fill="white"/>
<path d="M113.109 24.9283H112.221V21.743C112.221 21.129 112.125 20.6848 111.934 20.4104C111.746 20.1359 111.428 19.9986 110.98 19.9986C110.601 19.9986 110.278 20.172 110.011 20.5187C109.747 20.8654 109.615 21.2807 109.615 21.7647V24.9283H108.727V21.6346C108.727 20.544 108.306 19.9986 107.465 19.9986C107.075 19.9986 106.753 20.163 106.5 20.4916C106.248 20.8166 106.121 21.241 106.121 21.7647V24.9283H105.233V19.3811H106.121V20.2587H106.143C106.536 19.5869 107.111 19.2511 107.865 19.2511C108.245 19.2511 108.575 19.3576 108.857 19.5707C109.138 19.7802 109.332 20.0564 109.436 20.3995C109.848 19.6339 110.462 19.2511 111.278 19.2511C112.499 19.2511 113.109 20.0041 113.109 21.51V24.9283Z" fill="white"/>
<path d="M115.699 24.1265H115.677V24.9283H114.789V16.7158H115.677V20.3562H115.699C116.136 19.6194 116.775 19.2511 117.616 19.2511C118.328 19.2511 118.884 19.5003 119.285 19.9986C119.689 20.4934 119.892 21.1579 119.892 21.9922C119.892 22.9203 119.666 23.6643 119.214 24.2241C118.763 24.7802 118.145 25.0583 117.362 25.0583C116.629 25.0583 116.074 24.7477 115.699 24.1265ZM115.677 21.8892V22.6639C115.677 23.1226 115.825 23.5126 116.121 23.834C116.421 24.1518 116.8 24.3107 117.259 24.3107C117.797 24.3107 118.218 24.1049 118.521 23.6932C118.828 23.2815 118.982 22.7091 118.982 21.9759C118.982 21.3584 118.839 20.8744 118.554 20.5241C118.268 20.1738 117.882 19.9986 117.394 19.9986C116.878 19.9986 116.463 20.1792 116.148 20.5404C115.834 20.8979 115.677 21.3475 115.677 21.8892Z" fill="white"/>
<path d="M125.13 24.9283H124.242V24.0615H124.22C123.834 24.7261 123.265 25.0583 122.514 25.0583C121.961 25.0583 121.528 24.912 121.213 24.6195C120.903 24.327 120.748 23.9388 120.748 23.4548C120.748 22.4183 121.358 21.8152 122.579 21.6455L124.242 21.4125C124.242 20.4699 123.861 19.9986 123.099 19.9986C122.43 19.9986 121.827 20.2262 121.289 20.6812V19.7711C121.835 19.4244 122.463 19.2511 123.174 19.2511C124.478 19.2511 125.13 19.9409 125.13 21.3204V24.9283ZM124.242 22.1222L122.904 22.3064C122.492 22.3642 122.181 22.4671 121.972 22.6152C121.762 22.7596 121.658 23.0178 121.658 23.3898C121.658 23.6607 121.753 23.8828 121.945 24.0561C122.14 24.2259 122.398 24.3107 122.719 24.3107C123.16 24.3107 123.523 24.1572 123.808 23.8503C124.097 23.5397 124.242 23.1478 124.242 22.6747V22.1222Z" fill="white"/>
<path d="M131.409 24.9283H130.52V21.7647C130.52 20.5873 130.09 19.9986 129.231 19.9986C128.787 19.9986 128.418 20.1666 128.126 20.5024C127.837 20.8347 127.692 21.2554 127.692 21.7647V24.9283H126.804V19.3811H127.692V20.302H127.714C128.133 19.6014 128.74 19.2511 129.534 19.2511C130.141 19.2511 130.605 19.4479 130.926 19.8416C131.248 20.2316 131.409 20.7968 131.409 21.5371V24.9283Z" fill="white"/>
<path d="M137.823 24.4841C137.823 26.5209 136.847 27.5394 134.897 27.5394C134.211 27.5394 133.612 27.4094 133.099 27.1493V26.2609C133.723 26.6076 134.319 26.781 134.886 26.781C136.252 26.781 136.934 26.0551 136.934 24.6033V23.9965H136.912C136.49 24.7044 135.854 25.0583 135.006 25.0583C134.316 25.0583 133.76 24.8127 133.337 24.3216C132.918 23.8268 132.709 23.1641 132.709 22.3335C132.709 21.3909 132.934 20.6415 133.386 20.0853C133.841 19.5292 134.462 19.2511 135.249 19.2511C135.997 19.2511 136.551 19.5508 136.912 20.1503H136.934V19.3811H137.823V24.4841ZM136.934 22.4201V21.6021C136.934 21.1615 136.784 20.7841 136.484 20.4699C136.188 20.1557 135.818 19.9986 135.374 19.9986C134.825 19.9986 134.395 20.1991 134.085 20.6C133.774 20.9972 133.619 21.5552 133.619 22.2739C133.619 22.8914 133.767 23.3862 134.063 23.7582C134.363 24.1265 134.758 24.3107 135.249 24.3107C135.748 24.3107 136.152 24.1338 136.463 23.7798C136.777 23.4259 136.934 22.9727 136.934 22.4201Z" fill="white"/>
</svg>
