<svg width="83" height="29" viewBox="0 0 83 29" fill="none" xmlns="http://www.w3.org/2000/svg">
<path d="M1.49687 5.88598V8.99179H0.53418V0.77457H2.79191C3.67055 0.77457 4.35054 0.9885 4.83189 1.41636C5.31705 1.84422 5.55963 2.44781 5.55963 3.22713C5.55963 4.00645 5.29031 4.64442 4.75166 5.14104C4.21684 5.63766 3.49291 5.88598 2.57989 5.88598H1.49687ZM1.49687 1.64557V5.01497H2.50539C3.17011 5.01497 3.67628 4.86408 4.02392 4.56228C4.37537 4.25667 4.5511 3.8269 4.5511 3.27297C4.5511 2.18804 3.90931 1.64557 2.62573 1.64557H1.49687Z" fill="white"/>
<path d="M11.267 6.29283H7.124C7.13928 6.94608 7.31501 7.45034 7.65118 7.80562C7.98736 8.16089 8.4496 8.33853 9.03791 8.33853C9.6988 8.33853 10.3062 8.12078 10.8601 7.68528V8.56774C10.3444 8.94212 9.66251 9.12931 8.81443 9.12931C7.98545 9.12931 7.33411 8.86381 6.8604 8.3328C6.3867 7.79798 6.14985 7.04731 6.14985 6.0808C6.14985 5.16778 6.40771 4.42476 6.92344 3.85173C7.44298 3.27488 8.08668 2.98646 8.85454 2.98646C9.6224 2.98646 10.2164 3.23477 10.6367 3.73139C11.0569 4.22802 11.267 4.91756 11.267 5.80002V6.29283ZM10.3043 5.49632C10.3005 4.95385 10.1687 4.53172 9.90891 4.22993C9.65296 3.92813 9.29577 3.77723 8.83735 3.77723C8.39421 3.77723 8.01792 3.93577 7.70848 4.25285C7.39905 4.56992 7.20804 4.98441 7.13546 5.49632H10.3043Z" fill="white"/>
<path d="M21.0256 8.99179H20.0859V5.62238C20.0859 4.97295 19.9846 4.50307 19.7822 4.21274C19.5835 3.9224 19.2473 3.77723 18.7736 3.77723C18.3725 3.77723 18.0306 3.9606 17.7479 4.32734C17.4691 4.69408 17.3296 5.1334 17.3296 5.6453V8.99179H16.3899V5.50778C16.3899 4.35408 15.9448 3.77723 15.0547 3.77723C14.6421 3.77723 14.3021 3.95105 14.0347 4.29869C13.7673 4.64251 13.6336 5.09138 13.6336 5.6453V8.99179H12.6938V3.12398H13.6336V4.05229H13.6565C14.0729 3.34173 14.6803 2.98646 15.4787 2.98646C15.8799 2.98646 16.2294 3.09915 16.5274 3.32454C16.8254 3.54611 17.0297 3.83836 17.1405 4.20127C17.576 3.3914 18.2255 2.98646 19.0888 2.98646C20.38 2.98646 21.0256 3.78296 21.0256 5.37598V8.99179Z" fill="white"/>
<path d="M27.518 6.29283H23.3751C23.3903 6.94608 23.5661 7.45034 23.9022 7.80562C24.2384 8.16089 24.7007 8.33853 25.289 8.33853C25.9499 8.33853 26.5573 8.12078 27.1112 7.68528V8.56774C26.5955 8.94212 25.9136 9.12931 25.0655 9.12931C24.2365 9.12931 23.5852 8.86381 23.1115 8.3328C22.6378 7.79798 22.4009 7.04731 22.4009 6.0808C22.4009 5.16778 22.6588 4.42476 23.1745 3.85173C23.694 3.27488 24.3377 2.98646 25.1056 2.98646C25.8735 2.98646 26.4675 3.23477 26.8877 3.73139C27.3079 4.22802 27.518 4.91756 27.518 5.80002V6.29283ZM26.5554 5.49632C26.5515 4.95385 26.4197 4.53172 26.16 4.22993C25.904 3.92813 25.5468 3.77723 25.0884 3.77723C24.6453 3.77723 24.269 3.93577 23.9595 4.25285C23.6501 4.56992 23.4591 4.98441 23.3865 5.49632H26.5554Z" fill="white"/>
<path d="M32.0049 4.07521C31.8406 3.94914 31.6037 3.88611 31.2943 3.88611C30.8932 3.88611 30.557 4.07521 30.2858 4.45341C30.0184 4.8316 29.8846 5.34733 29.8846 6.00058V8.99179H28.9449V3.12398H29.8846V4.33307H29.9076C30.0413 3.92049 30.2457 3.5996 30.5207 3.37038C30.7958 3.13735 31.1033 3.02084 31.4433 3.02084C31.6878 3.02084 31.875 3.04758 32.0049 3.10106V4.07521Z" fill="white"/>
<path d="M33.5062 1.63411C33.3381 1.63411 33.1948 1.57681 33.0764 1.4622C32.958 1.3476 32.8988 1.20243 32.8988 1.0267C32.8988 0.850974 32.958 0.705807 33.0764 0.591201C33.1948 0.472776 33.3381 0.413563 33.5062 0.413563C33.6781 0.413563 33.8233 0.472776 33.9417 0.591201C34.0639 0.705807 34.1251 0.850974 34.1251 1.0267C34.1251 1.19479 34.0639 1.33805 33.9417 1.45647C33.8233 1.5749 33.6781 1.63411 33.5062 1.63411ZM33.9646 8.99179H33.0248V3.12398H33.9646V8.99179Z" fill="white"/>
<path d="M40.7378 8.99179H39.798V5.6453C39.798 4.39992 39.3434 3.77723 38.4342 3.77723C37.9643 3.77723 37.5747 3.95487 37.2652 4.31015C36.9596 4.66161 36.8068 5.10666 36.8068 5.6453V8.99179H35.8671V3.12398H36.8068V4.09813H36.8297C37.2729 3.35701 37.9147 2.98646 38.7551 2.98646C39.3969 2.98646 39.8878 3.19466 40.2278 3.61106C40.5678 4.02364 40.7378 4.62149 40.7378 5.40463V8.99179Z" fill="white"/>
<path d="M45.2361 8.93448C45.0145 9.05673 44.7222 9.11785 44.3593 9.11785C43.3317 9.11785 42.8179 8.54482 42.8179 7.39877V3.92622H41.8094V3.12398H42.8179V1.69141L43.7576 1.38771V3.12398H45.2361V3.92622H43.7576V7.23259C43.7576 7.62607 43.8245 7.90685 43.9582 8.07494C44.0919 8.24303 44.3135 8.32707 44.6229 8.32707C44.8598 8.32707 45.0641 8.26213 45.2361 8.13224V8.93448Z" fill="white"/>
<path d="M50.6913 8.99179H49.7515V8.07494H49.7286C49.3198 8.77785 48.7182 9.12931 47.9236 9.12931C47.3391 9.12931 46.8806 8.97459 46.5483 8.66516C46.2198 8.35572 46.0555 7.94505 46.0555 7.43315C46.0555 6.33676 46.7011 5.69879 47.9923 5.51924L49.7515 5.27284C49.7515 4.27577 49.3485 3.77723 48.5424 3.77723C47.8357 3.77723 47.1977 4.01791 46.6285 4.49925V3.53656C47.2054 3.16983 47.8701 2.98646 48.6227 2.98646C50.0017 2.98646 50.6913 3.71611 50.6913 5.17542V8.99179ZM49.7515 6.0235L48.3361 6.21833C47.9006 6.27945 47.5721 6.38833 47.3505 6.54496C47.129 6.69776 47.0182 6.97091 47.0182 7.36439C47.0182 7.6509 47.1194 7.88584 47.3219 8.06921C47.5282 8.24876 47.8013 8.33853 48.1413 8.33853C48.6074 8.33853 48.9913 8.17618 49.2931 7.85146C49.5987 7.52292 49.7515 7.10843 49.7515 6.60799V6.0235Z" fill="white"/>
<path d="M57.3327 8.99179H56.3929V5.61092C56.3929 4.38846 55.9383 3.77723 55.0291 3.77723C54.5707 3.77723 54.1848 3.95487 53.8716 4.31015C53.5583 4.66161 53.4017 5.1143 53.4017 5.66823V8.99179H52.4619V0.304688H53.4017V4.09813H53.4246C53.8754 3.35701 54.5172 2.98646 55.35 2.98646C56.6718 2.98646 57.3327 3.78296 57.3327 5.37598V8.99179Z" fill="white"/>
<path d="M6.25299 25.4216H4.91211L1.73754 21.6626C1.61911 21.5212 1.54653 21.4257 1.51979 21.3761H1.49687V25.4216H0.53418V17.2044H1.49687V21.0666H1.51979C1.57327 20.9826 1.64585 20.889 1.73754 20.7858L4.80897 17.2044H6.00659L2.48247 21.1468L6.25299 25.4216Z" fill="white"/>
<path d="M9.50779 25.5592C8.64061 25.5592 7.94725 25.286 7.4277 24.7397C6.91198 24.1896 6.65411 23.4619 6.65411 22.5565C6.65411 21.5709 6.92344 20.8011 7.46208 20.2472C8.00073 19.6933 8.72847 19.4163 9.64532 19.4163C10.5201 19.4163 11.202 19.6856 11.691 20.2243C12.1838 20.7629 12.4302 21.5098 12.4302 22.4648C12.4302 23.4008 12.1647 24.1514 11.6337 24.7168C11.1065 25.2784 10.3979 25.5592 9.50779 25.5592ZM9.57655 20.2071C8.97297 20.2071 8.49544 20.4134 8.14399 20.8259C7.79253 21.2347 7.6168 21.8001 7.6168 22.5221C7.6168 23.2174 7.79444 23.7656 8.14972 24.1667C8.50499 24.5678 8.98061 24.7684 9.57655 24.7684C10.184 24.7684 10.65 24.5716 10.9747 24.1782C11.3033 23.7847 11.4675 23.225 11.4675 22.4992C11.4675 21.7657 11.3033 21.2003 10.9747 20.803C10.65 20.4057 10.184 20.2071 9.57655 20.2071Z" fill="white"/>
<path d="M16.6534 25.3643C16.4319 25.4866 16.1396 25.5477 15.7767 25.5477C14.7491 25.5477 14.2353 24.9747 14.2353 23.8286V20.3561H13.2267V19.5538H14.2353V18.1213L15.175 17.8176V19.5538H16.6534V20.3561H15.175V23.6624C15.175 24.0559 15.2419 24.3367 15.3756 24.5048C15.5093 24.6729 15.7309 24.7569 16.0403 24.7569C16.2772 24.7569 16.4815 24.692 16.6534 24.5621V25.3643Z" fill="white"/>
<path d="M22.1087 25.4216H21.1689V24.5048H21.146C20.7372 25.2077 20.1355 25.5592 19.3409 25.5592C18.7565 25.5592 18.298 25.4044 17.9657 25.095C17.6371 24.7856 17.4729 24.3749 17.4729 23.863C17.4729 22.7666 18.1185 22.1286 19.4097 21.9491L21.1689 21.7027C21.1689 20.7056 20.7659 20.2071 19.9598 20.2071C19.2531 20.2071 18.6151 20.4478 18.0459 20.9291V19.9664C18.6227 19.5997 19.2875 19.4163 20.04 19.4163C21.4191 19.4163 22.1087 20.146 22.1087 21.6053V25.4216ZM21.1689 22.4533L19.7535 22.6482C19.318 22.7093 18.9895 22.8182 18.7679 22.9748C18.5463 23.1276 18.4356 23.4008 18.4356 23.7942C18.4356 24.0807 18.5368 24.3157 18.7393 24.4991C18.9456 24.6786 19.2187 24.7684 19.5587 24.7684C20.0248 24.7684 20.4087 24.606 20.7105 24.2813C21.0161 23.9528 21.1689 23.5383 21.1689 23.0378V22.4533Z" fill="white"/>
<path d="M28.1885 22.3158V25.4216H27.2258V17.2044H29.4835C30.3622 17.2044 31.0422 17.4183 31.5235 17.8462C32.0087 18.2741 32.2513 18.8777 32.2513 19.657C32.2513 20.4363 31.9819 21.0743 31.4433 21.5709C30.9085 22.0675 30.1845 22.3158 29.2715 22.3158H28.1885ZM28.1885 18.0754V21.4448H29.197C29.8617 21.4448 30.3679 21.2939 30.7155 20.9921C31.067 20.6865 31.2427 20.2567 31.2427 19.7028C31.2427 18.6179 30.6009 18.0754 29.3174 18.0754H28.1885Z" fill="white"/>
<path d="M37.5002 25.4216H36.5604V24.5048H36.5375C36.1287 25.2077 35.5271 25.5592 34.7325 25.5592C34.148 25.5592 33.6896 25.4044 33.3572 25.095C33.0287 24.7856 32.8644 24.3749 32.8644 23.863C32.8644 22.7666 33.51 22.1286 34.8012 21.9491L36.5604 21.7027C36.5604 20.7056 36.1574 20.2071 35.3513 20.2071C34.6446 20.2071 34.0066 20.4478 33.4374 20.9291V19.9664C34.0143 19.5997 34.679 19.4163 35.4316 19.4163C36.8106 19.4163 37.5002 20.146 37.5002 21.6053V25.4216ZM36.5604 22.4533L35.145 22.6482C34.7095 22.7093 34.381 22.8182 34.1594 22.9748C33.9379 23.1276 33.8271 23.4008 33.8271 23.7942C33.8271 24.0807 33.9283 24.3157 34.1308 24.4991C34.3371 24.6786 34.6102 24.7684 34.9502 24.7684C35.4163 24.7684 35.8002 24.606 36.102 24.2813C36.4076 23.9528 36.5604 23.5383 36.5604 23.0378V22.4533Z" fill="white"/>
<path d="M40.2106 25.4216H39.2708V16.7345H40.2106V25.4216Z" fill="white"/>
<path d="M46.8291 22.7227H42.6861C42.7014 23.3759 42.8771 23.8802 43.2133 24.2355C43.5494 24.5907 44.0117 24.7684 44.6 24.7684C45.2609 24.7684 45.8683 24.5506 46.4222 24.1151V24.9976C45.9065 25.372 45.2246 25.5592 44.3765 25.5592C43.5475 25.5592 42.8962 25.2937 42.4225 24.7626C41.9488 24.2278 41.7119 23.4772 41.7119 22.5107C41.7119 21.5976 41.9698 20.8546 42.4855 20.2816C43.0051 19.7047 43.6488 19.4163 44.4166 19.4163C45.1845 19.4163 45.7785 19.6646 46.1987 20.1612C46.619 20.6579 46.8291 21.3474 46.8291 22.2299V22.7227ZM45.8664 21.9262C45.8626 21.3837 45.7308 20.9616 45.471 20.6598C45.215 20.358 44.8579 20.2071 44.3994 20.2071C43.9563 20.2071 43.58 20.3656 43.2706 20.6827C42.9611 20.9998 42.7701 21.4143 42.6975 21.9262H45.8664Z" fill="white"/>
<path d="M56.5877 25.4216H55.648V22.0522C55.648 21.4028 55.5467 20.9329 55.3443 20.6426C55.1456 20.3522 54.8094 20.2071 54.3357 20.2071C53.9346 20.2071 53.5927 20.3904 53.31 20.7572C53.0311 21.1239 52.8917 21.5632 52.8917 22.0751V25.4216H51.9519V21.9376C51.9519 20.7839 51.5069 20.2071 50.6168 20.2071C50.2042 20.2071 49.8642 20.3809 49.5968 20.7285C49.3294 21.0724 49.1957 21.5212 49.1957 22.0751V25.4216H48.2559V19.5538H49.1957V20.4821H49.2186C49.635 19.7716 50.2424 19.4163 51.0408 19.4163C51.4419 19.4163 51.7915 19.529 52.0895 19.7544C52.3874 19.976 52.5918 20.2682 52.7026 20.6311C53.1381 19.8212 53.7875 19.4163 54.6509 19.4163C55.9421 19.4163 56.5877 20.2128 56.5877 21.8058V25.4216Z" fill="white"/>
<path d="M59.3268 24.5735H59.3039V25.4216H58.3641V16.7345H59.3039V20.5853H59.3268C59.789 19.806 60.4652 19.4163 61.3553 19.4163C62.1079 19.4163 62.6962 19.6799 63.1202 20.2071C63.5481 20.7304 63.762 21.4334 63.762 22.3158C63.762 23.2976 63.5233 24.0846 63.0458 24.6767C62.5682 25.265 61.915 25.5592 61.086 25.5592C60.3105 25.5592 59.7241 25.2306 59.3268 24.5735ZM59.3039 22.2069V23.0264C59.3039 23.5115 59.4605 23.9241 59.7738 24.2641C60.0908 24.6003 60.492 24.7684 60.9771 24.7684C61.5463 24.7684 61.9914 24.5506 62.3123 24.1151C62.637 23.6796 62.7994 23.0741 62.7994 22.2986C62.7994 21.6454 62.6485 21.1335 62.3467 20.7629C62.0449 20.3924 61.6361 20.2071 61.1204 20.2071C60.5741 20.2071 60.1348 20.3981 59.8024 20.7801C59.4701 21.1583 59.3039 21.6339 59.3039 22.2069Z" fill="white"/>
<path d="M69.3032 25.4216H68.3634V24.5048H68.3405C67.9318 25.2077 67.3301 25.5592 66.5355 25.5592C65.951 25.5592 65.4926 25.4044 65.1602 25.095C64.8317 24.7856 64.6674 24.3749 64.6674 23.863C64.6674 22.7666 65.313 22.1286 66.6043 21.9491L68.3634 21.7027C68.3634 20.7056 67.9604 20.2071 67.1544 20.2071C66.4476 20.2071 65.8097 20.4478 65.2404 20.9291V19.9664C65.8173 19.5997 66.482 19.4163 67.2346 19.4163C68.6137 19.4163 69.3032 20.146 69.3032 21.6053V25.4216ZM68.3634 22.4533L66.9481 22.6482C66.5126 22.7093 66.184 22.8182 65.9625 22.9748C65.7409 23.1276 65.6301 23.4008 65.6301 23.7942C65.6301 24.0807 65.7313 24.3157 65.9338 24.4991C66.1401 24.6786 66.4132 24.7684 66.7532 24.7684C67.2193 24.7684 67.6032 24.606 67.905 24.2813C68.2106 23.9528 68.3634 23.5383 68.3634 23.0378V22.4533Z" fill="white"/>
<path d="M75.9446 25.4216H75.0048V22.0751C75.0048 20.8298 74.5502 20.2071 73.641 20.2071C73.1712 20.2071 72.7815 20.3847 72.4721 20.74C72.1664 21.0915 72.0136 21.5365 72.0136 22.0751V25.4216H71.0739V19.5538H72.0136V20.528H72.0366C72.4797 19.7869 73.1215 19.4163 73.9619 19.4163C74.6037 19.4163 75.0946 19.6245 75.4346 20.0409C75.7746 20.4535 75.9446 21.0513 75.9446 21.8345V25.4216Z" fill="white"/>
<path d="M82.7292 24.9517C82.7292 27.1063 81.6978 28.1836 79.6349 28.1836C78.9091 28.1836 78.2749 28.0461 77.7324 27.771V26.8313C78.3933 27.198 79.0237 27.3814 79.6234 27.3814C81.0675 27.3814 81.7895 26.6135 81.7895 25.0778V24.436H81.7666C81.3196 25.1848 80.6472 25.5592 79.7495 25.5592C79.0199 25.5592 78.4315 25.2994 77.9846 24.7798C77.5414 24.2565 77.3199 23.5555 77.3199 22.6768C77.3199 21.6798 77.5586 20.8871 78.0362 20.2988C78.5175 19.7105 79.1746 19.4163 80.0074 19.4163C80.7981 19.4163 81.3845 19.7334 81.7666 20.3675H81.7895V19.5538H82.7292V24.9517ZM81.7895 22.7685V21.9032C81.7895 21.4372 81.631 21.038 81.3139 20.7056C81.0006 20.3733 80.609 20.2071 80.1392 20.2071C79.5585 20.2071 79.1039 20.4191 78.7754 20.8431C78.4468 21.2634 78.2826 21.8536 78.2826 22.6138C78.2826 23.267 78.4392 23.7904 78.7524 24.1839C79.0695 24.5735 79.4878 24.7684 80.0074 24.7684C80.5346 24.7684 80.9624 24.5812 81.2909 24.2068C81.6233 23.8324 81.7895 23.353 81.7895 22.7685Z" fill="white"/>
</svg>
